<?xml version="1.0" encoding="utf-8"?>
<svg xmlns="http://www.w3.org/2000/svg" xmlns:xlink="http://www.w3.org/1999/xlink" width="600" height="400" viewBox="0 0 2400 1600">
<defs>
  <clipPath id="clip150">
    <rect x="0" y="0" width="2400" height="1600"/>
  </clipPath>
</defs>
<path clip-path="url(#clip150)" d="M0 1600 L2400 1600 L2400 0 L0 0  Z" fill="#ffffff" fill-rule="evenodd" fill-opacity="1"/>
<defs>
  <clipPath id="clip151">
    <rect x="480" y="0" width="1681" height="1600"/>
  </clipPath>
</defs>
<path clip-path="url(#clip150)" d="M242.135 1423.18 L2352.76 1423.18 L2352.76 123.472 L242.135 123.472  Z" fill="#ffffff" fill-rule="evenodd" fill-opacity="1"/>
<defs>
  <clipPath id="clip152">
    <rect x="242" y="123" width="2112" height="1301"/>
  </clipPath>
</defs>
<polyline clip-path="url(#clip152)" style="stroke:#000000; stroke-linecap:round; stroke-linejoin:round; stroke-width:2; stroke-opacity:0.1; fill:none" points="447.378,1423.18 447.378,123.472 "/>
<polyline clip-path="url(#clip152)" style="stroke:#000000; stroke-linecap:round; stroke-linejoin:round; stroke-width:2; stroke-opacity:0.1; fill:none" points="898.089,1423.18 898.089,123.472 "/>
<polyline clip-path="url(#clip152)" style="stroke:#000000; stroke-linecap:round; stroke-linejoin:round; stroke-width:2; stroke-opacity:0.1; fill:none" points="1348.8,1423.18 1348.8,123.472 "/>
<polyline clip-path="url(#clip152)" style="stroke:#000000; stroke-linecap:round; stroke-linejoin:round; stroke-width:2; stroke-opacity:0.1; fill:none" points="1799.51,1423.18 1799.51,123.472 "/>
<polyline clip-path="url(#clip152)" style="stroke:#000000; stroke-linecap:round; stroke-linejoin:round; stroke-width:2; stroke-opacity:0.1; fill:none" points="2250.22,1423.18 2250.22,123.472 "/>
<polyline clip-path="url(#clip150)" style="stroke:#000000; stroke-linecap:round; stroke-linejoin:round; stroke-width:4; stroke-opacity:1; fill:none" points="242.135,1423.18 2352.76,1423.18 "/>
<polyline clip-path="url(#clip150)" style="stroke:#000000; stroke-linecap:round; stroke-linejoin:round; stroke-width:4; stroke-opacity:1; fill:none" points="447.378,1423.18 447.378,1404.28 "/>
<polyline clip-path="url(#clip150)" style="stroke:#000000; stroke-linecap:round; stroke-linejoin:round; stroke-width:4; stroke-opacity:1; fill:none" points="898.089,1423.18 898.089,1404.28 "/>
<polyline clip-path="url(#clip150)" style="stroke:#000000; stroke-linecap:round; stroke-linejoin:round; stroke-width:4; stroke-opacity:1; fill:none" points="1348.8,1423.18 1348.8,1404.28 "/>
<polyline clip-path="url(#clip150)" style="stroke:#000000; stroke-linecap:round; stroke-linejoin:round; stroke-width:4; stroke-opacity:1; fill:none" points="1799.51,1423.18 1799.51,1404.28 "/>
<polyline clip-path="url(#clip150)" style="stroke:#000000; stroke-linecap:round; stroke-linejoin:round; stroke-width:4; stroke-opacity:1; fill:none" points="2250.22,1423.18 2250.22,1404.28 "/>
<path clip-path="url(#clip150)" d="M401.441 1468.75 L431.116 1468.75 L431.116 1472.69 L401.441 1472.69 L401.441 1468.75 Z" fill="#000000" fill-rule="nonzero" fill-opacity="1" /><path clip-path="url(#clip150)" d="M454.056 1455.09 L442.251 1473.54 L454.056 1473.54 L454.056 1455.09 M452.829 1451.02 L458.709 1451.02 L458.709 1473.54 L463.639 1473.54 L463.639 1477.43 L458.709 1477.43 L458.709 1485.58 L454.056 1485.58 L454.056 1477.43 L438.454 1477.43 L438.454 1472.92 L452.829 1451.02 Z" fill="#000000" fill-rule="nonzero" fill-opacity="1" /><path clip-path="url(#clip150)" d="M481.371 1454.1 Q477.76 1454.1 475.931 1457.66 Q474.126 1461.2 474.126 1468.33 Q474.126 1475.44 475.931 1479.01 Q477.76 1482.55 481.371 1482.55 Q485.005 1482.55 486.811 1479.01 Q488.639 1475.44 488.639 1468.33 Q488.639 1461.2 486.811 1457.66 Q485.005 1454.1 481.371 1454.1 M481.371 1450.39 Q487.181 1450.39 490.237 1455 Q493.315 1459.58 493.315 1468.33 Q493.315 1477.06 490.237 1481.67 Q487.181 1486.25 481.371 1486.25 Q475.561 1486.25 472.482 1481.67 Q469.426 1477.06 469.426 1468.33 Q469.426 1459.58 472.482 1455 Q475.561 1450.39 481.371 1450.39 Z" fill="#000000" fill-rule="nonzero" fill-opacity="1" /><path clip-path="url(#clip150)" d="M852.152 1468.75 L881.828 1468.75 L881.828 1472.69 L852.152 1472.69 L852.152 1468.75 Z" fill="#000000" fill-rule="nonzero" fill-opacity="1" /><path clip-path="url(#clip150)" d="M895.948 1481.64 L912.267 1481.64 L912.267 1485.58 L890.323 1485.58 L890.323 1481.64 Q892.985 1478.89 897.568 1474.26 Q902.175 1469.61 903.355 1468.27 Q905.601 1465.74 906.48 1464.01 Q907.383 1462.25 907.383 1460.56 Q907.383 1457.8 905.439 1456.07 Q903.517 1454.33 900.416 1454.33 Q898.216 1454.33 895.763 1455.09 Q893.332 1455.86 890.554 1457.41 L890.554 1452.69 Q893.379 1451.55 895.832 1450.97 Q898.286 1450.39 900.323 1450.39 Q905.693 1450.39 908.888 1453.08 Q912.082 1455.77 912.082 1460.26 Q912.082 1462.39 911.272 1464.31 Q910.485 1466.2 908.378 1468.8 Q907.8 1469.47 904.698 1472.69 Q901.596 1475.88 895.948 1481.64 Z" fill="#000000" fill-rule="nonzero" fill-opacity="1" /><path clip-path="url(#clip150)" d="M932.082 1454.1 Q928.471 1454.1 926.642 1457.66 Q924.837 1461.2 924.837 1468.33 Q924.837 1475.44 926.642 1479.01 Q928.471 1482.55 932.082 1482.55 Q935.716 1482.55 937.522 1479.01 Q939.351 1475.44 939.351 1468.33 Q939.351 1461.2 937.522 1457.66 Q935.716 1454.1 932.082 1454.1 M932.082 1450.39 Q937.892 1450.39 940.948 1455 Q944.026 1459.58 944.026 1468.33 Q944.026 1477.06 940.948 1481.67 Q937.892 1486.25 932.082 1486.25 Q926.272 1486.25 923.193 1481.67 Q920.138 1477.06 920.138 1468.33 Q920.138 1459.58 923.193 1455 Q926.272 1450.39 932.082 1450.39 Z" fill="#000000" fill-rule="nonzero" fill-opacity="1" /><path clip-path="url(#clip150)" d="M1348.8 1454.1 Q1345.19 1454.1 1343.36 1457.66 Q1341.56 1461.2 1341.56 1468.33 Q1341.56 1475.44 1343.36 1479.01 Q1345.19 1482.55 1348.8 1482.55 Q1352.43 1482.55 1354.24 1479.01 Q1356.07 1475.44 1356.07 1468.33 Q1356.07 1461.2 1354.24 1457.66 Q1352.43 1454.1 1348.8 1454.1 M1348.8 1450.39 Q1354.61 1450.39 1357.67 1455 Q1360.74 1459.58 1360.74 1468.33 Q1360.74 1477.06 1357.67 1481.67 Q1354.61 1486.25 1348.8 1486.25 Q1342.99 1486.25 1339.91 1481.67 Q1336.86 1477.06 1336.86 1468.33 Q1336.86 1459.58 1339.91 1455 Q1342.99 1450.39 1348.8 1450.39 Z" fill="#000000" fill-rule="nonzero" fill-opacity="1" /><path clip-path="url(#clip150)" d="M1778.28 1481.64 L1794.6 1481.64 L1794.6 1485.58 L1772.66 1485.58 L1772.66 1481.64 Q1775.32 1478.89 1779.91 1474.26 Q1784.51 1469.61 1785.69 1468.27 Q1787.94 1465.74 1788.82 1464.01 Q1789.72 1462.25 1789.72 1460.56 Q1789.72 1457.8 1787.78 1456.07 Q1785.85 1454.33 1782.75 1454.33 Q1780.55 1454.33 1778.1 1455.09 Q1775.67 1455.86 1772.89 1457.41 L1772.89 1452.69 Q1775.72 1451.55 1778.17 1450.97 Q1780.62 1450.39 1782.66 1450.39 Q1788.03 1450.39 1791.22 1453.08 Q1794.42 1455.77 1794.42 1460.26 Q1794.42 1462.39 1793.61 1464.31 Q1792.82 1466.2 1790.72 1468.8 Q1790.14 1469.47 1787.03 1472.69 Q1783.93 1475.88 1778.28 1481.64 Z" fill="#000000" fill-rule="nonzero" fill-opacity="1" /><path clip-path="url(#clip150)" d="M1814.42 1454.1 Q1810.81 1454.1 1808.98 1457.66 Q1807.17 1461.2 1807.17 1468.33 Q1807.17 1475.44 1808.98 1479.01 Q1810.81 1482.55 1814.42 1482.55 Q1818.05 1482.55 1819.86 1479.01 Q1821.69 1475.44 1821.69 1468.33 Q1821.69 1461.2 1819.86 1457.66 Q1818.05 1454.1 1814.42 1454.1 M1814.42 1450.39 Q1820.23 1450.39 1823.28 1455 Q1826.36 1459.58 1826.36 1468.33 Q1826.36 1477.06 1823.28 1481.67 Q1820.23 1486.25 1814.42 1486.25 Q1808.61 1486.25 1805.53 1481.67 Q1802.47 1477.06 1802.47 1468.33 Q1802.47 1459.58 1805.53 1455 Q1808.61 1450.39 1814.42 1450.39 Z" fill="#000000" fill-rule="nonzero" fill-opacity="1" /><path clip-path="url(#clip150)" d="M2238.39 1455.09 L2226.59 1473.54 L2238.39 1473.54 L2238.39 1455.09 M2237.17 1451.02 L2243.05 1451.02 L2243.05 1473.54 L2247.98 1473.54 L2247.98 1477.43 L2243.05 1477.43 L2243.05 1485.58 L2238.39 1485.58 L2238.39 1477.43 L2222.79 1477.43 L2222.79 1472.92 L2237.17 1451.02 Z" fill="#000000" fill-rule="nonzero" fill-opacity="1" /><path clip-path="url(#clip150)" d="M2265.71 1454.1 Q2262.1 1454.1 2260.27 1457.66 Q2258.46 1461.2 2258.46 1468.33 Q2258.46 1475.44 2260.27 1479.01 Q2262.1 1482.55 2265.71 1482.55 Q2269.34 1482.55 2271.15 1479.01 Q2272.98 1475.44 2272.98 1468.33 Q2272.98 1461.2 2271.15 1457.66 Q2269.34 1454.1 2265.71 1454.1 M2265.71 1450.39 Q2271.52 1450.39 2274.57 1455 Q2277.65 1459.58 2277.65 1468.33 Q2277.65 1477.06 2274.57 1481.67 Q2271.52 1486.25 2265.71 1486.25 Q2259.9 1486.25 2256.82 1481.67 Q2253.76 1477.06 2253.76 1468.33 Q2253.76 1459.58 2256.82 1455 Q2259.9 1450.39 2265.71 1450.39 Z" fill="#000000" fill-rule="nonzero" fill-opacity="1" /><path clip-path="url(#clip150)" d="M1105.74 1525.81 L1105.74 1562.76 L1113.51 1562.76 Q1123.34 1562.76 1127.89 1558.3 Q1132.48 1553.85 1132.48 1544.24 Q1132.48 1534.69 1127.89 1530.26 Q1123.34 1525.81 1113.51 1525.81 L1105.74 1525.81 M1099.31 1520.52 L1112.52 1520.52 Q1126.34 1520.52 1132.8 1526.28 Q1139.26 1532.01 1139.26 1544.24 Q1139.26 1556.52 1132.76 1562.28 Q1126.27 1568.04 1112.52 1568.04 L1099.31 1568.04 L1099.31 1520.52 Z" fill="#000000" fill-rule="nonzero" fill-opacity="1" /><path clip-path="url(#clip150)" d="M1149.25 1532.4 L1155.11 1532.4 L1155.11 1568.04 L1149.25 1568.04 L1149.25 1532.4 M1149.25 1518.52 L1155.11 1518.52 L1155.11 1525.93 L1149.25 1525.93 L1149.25 1518.52 Z" fill="#000000" fill-rule="nonzero" fill-opacity="1" /><path clip-path="url(#clip150)" d="M1195.12 1539.24 Q1197.31 1535.29 1200.37 1533.41 Q1203.42 1531.54 1207.56 1531.54 Q1213.13 1531.54 1216.16 1535.45 Q1219.18 1539.33 1219.18 1546.53 L1219.18 1568.04 L1213.29 1568.04 L1213.29 1546.72 Q1213.29 1541.59 1211.48 1539.11 Q1209.66 1536.63 1205.94 1536.63 Q1201.39 1536.63 1198.75 1539.65 Q1196.1 1542.68 1196.1 1547.9 L1196.1 1568.04 L1190.21 1568.04 L1190.21 1546.72 Q1190.21 1541.56 1188.4 1539.11 Q1186.59 1536.63 1182.8 1536.63 Q1178.31 1536.63 1175.67 1539.68 Q1173.03 1542.71 1173.03 1547.9 L1173.03 1568.04 L1167.14 1568.04 L1167.14 1532.4 L1173.03 1532.4 L1173.03 1537.93 Q1175.03 1534.66 1177.83 1533.1 Q1180.63 1531.54 1184.49 1531.54 Q1188.37 1531.54 1191.07 1533.51 Q1193.81 1535.48 1195.12 1539.24 Z" fill="#000000" fill-rule="nonzero" fill-opacity="1" /><path clip-path="url(#clip150)" d="M1261.35 1548.76 L1261.35 1551.62 L1234.42 1551.62 Q1234.81 1557.67 1238.05 1560.85 Q1241.33 1564 1247.16 1564 Q1250.53 1564 1253.68 1563.17 Q1256.86 1562.35 1259.98 1560.69 L1259.98 1566.23 Q1256.83 1567.57 1253.52 1568.27 Q1250.21 1568.97 1246.81 1568.97 Q1238.28 1568.97 1233.28 1564 Q1228.31 1559.04 1228.31 1550.57 Q1228.31 1541.82 1233.02 1536.69 Q1237.77 1531.54 1245.79 1531.54 Q1252.98 1531.54 1257.15 1536.18 Q1261.35 1540.8 1261.35 1548.76 M1255.5 1547.04 Q1255.43 1542.23 1252.79 1539.37 Q1250.18 1536.5 1245.85 1536.5 Q1240.95 1536.5 1237.99 1539.27 Q1235.06 1542.04 1234.62 1547.07 L1255.5 1547.04 Z" fill="#000000" fill-rule="nonzero" fill-opacity="1" /><path clip-path="url(#clip150)" d="M1300.6 1546.53 L1300.6 1568.04 L1294.74 1568.04 L1294.74 1546.72 Q1294.74 1541.66 1292.77 1539.14 Q1290.79 1536.63 1286.85 1536.63 Q1282.1 1536.63 1279.37 1539.65 Q1276.63 1542.68 1276.63 1547.9 L1276.63 1568.04 L1270.74 1568.04 L1270.74 1532.4 L1276.63 1532.4 L1276.63 1537.93 Q1278.73 1534.72 1281.56 1533.13 Q1284.43 1531.54 1288.15 1531.54 Q1294.29 1531.54 1297.45 1535.36 Q1300.6 1539.14 1300.6 1546.53 Z" fill="#000000" fill-rule="nonzero" fill-opacity="1" /><path clip-path="url(#clip150)" d="M1335 1533.45 L1335 1538.98 Q1332.52 1537.71 1329.85 1537.07 Q1327.17 1536.44 1324.31 1536.44 Q1319.95 1536.44 1317.75 1537.77 Q1315.59 1539.11 1315.59 1541.79 Q1315.59 1543.82 1317.15 1545 Q1318.71 1546.15 1323.42 1547.2 L1325.42 1547.64 Q1331.66 1548.98 1334.27 1551.43 Q1336.91 1553.85 1336.91 1558.21 Q1336.91 1563.17 1332.97 1566.07 Q1329.05 1568.97 1322.18 1568.97 Q1319.31 1568.97 1316.19 1568.39 Q1313.1 1567.85 1309.67 1566.74 L1309.67 1560.69 Q1312.91 1562.38 1316.06 1563.24 Q1319.22 1564.07 1322.3 1564.07 Q1326.44 1564.07 1328.67 1562.66 Q1330.9 1561.23 1330.9 1558.65 Q1330.9 1556.27 1329.27 1554.99 Q1327.68 1553.72 1322.24 1552.54 L1320.2 1552.07 Q1314.76 1550.92 1312.34 1548.56 Q1309.92 1546.18 1309.92 1542.04 Q1309.92 1537.01 1313.49 1534.27 Q1317.05 1531.54 1323.61 1531.54 Q1326.85 1531.54 1329.72 1532.01 Q1332.58 1532.49 1335 1533.45 Z" fill="#000000" fill-rule="nonzero" fill-opacity="1" /><path clip-path="url(#clip150)" d="M1346.24 1532.4 L1352.09 1532.4 L1352.09 1568.04 L1346.24 1568.04 L1346.24 1532.4 M1346.24 1518.52 L1352.09 1518.52 L1352.09 1525.93 L1346.24 1525.93 L1346.24 1518.52 Z" fill="#000000" fill-rule="nonzero" fill-opacity="1" /><path clip-path="url(#clip150)" d="M1378.16 1536.5 Q1373.45 1536.5 1370.71 1540.19 Q1367.98 1543.85 1367.98 1550.25 Q1367.98 1556.65 1370.68 1560.34 Q1373.42 1564 1378.16 1564 Q1382.84 1564 1385.58 1560.31 Q1388.32 1556.62 1388.32 1550.25 Q1388.32 1543.92 1385.58 1540.23 Q1382.84 1536.5 1378.16 1536.5 M1378.16 1531.54 Q1385.8 1531.54 1390.16 1536.5 Q1394.52 1541.47 1394.52 1550.25 Q1394.52 1559 1390.16 1564 Q1385.8 1568.97 1378.16 1568.97 Q1370.49 1568.97 1366.13 1564 Q1361.8 1559 1361.8 1550.25 Q1361.8 1541.47 1366.13 1536.5 Q1370.49 1531.54 1378.16 1531.54 Z" fill="#000000" fill-rule="nonzero" fill-opacity="1" /><path clip-path="url(#clip150)" d="M1433.86 1546.53 L1433.86 1568.04 L1428.01 1568.04 L1428.01 1546.72 Q1428.01 1541.66 1426.03 1539.14 Q1424.06 1536.63 1420.11 1536.63 Q1415.37 1536.63 1412.63 1539.65 Q1409.9 1542.68 1409.9 1547.9 L1409.9 1568.04 L1404.01 1568.04 L1404.01 1532.4 L1409.9 1532.4 L1409.9 1537.93 Q1412 1534.72 1414.83 1533.13 Q1417.69 1531.54 1421.42 1531.54 Q1427.56 1531.54 1430.71 1535.36 Q1433.86 1539.14 1433.86 1546.53 Z" fill="#000000" fill-rule="nonzero" fill-opacity="1" /><path clip-path="url(#clip150)" d="M1468.21 1562.63 L1478.71 1562.63 L1478.71 1526.38 L1467.28 1528.67 L1467.28 1522.82 L1478.65 1520.52 L1485.07 1520.52 L1485.07 1562.63 L1495.58 1562.63 L1495.58 1568.04 L1468.21 1568.04 L1468.21 1562.63 Z" fill="#000000" fill-rule="nonzero" fill-opacity="1" /><polyline clip-path="url(#clip152)" style="stroke:#000000; stroke-linecap:round; stroke-linejoin:round; stroke-width:2; stroke-opacity:0.1; fill:none" points="242.135,1319.66 2352.76,1319.66 "/>
<polyline clip-path="url(#clip152)" style="stroke:#000000; stroke-linecap:round; stroke-linejoin:round; stroke-width:2; stroke-opacity:0.1; fill:none" points="242.135,980.372 2352.76,980.372 "/>
<polyline clip-path="url(#clip152)" style="stroke:#000000; stroke-linecap:round; stroke-linejoin:round; stroke-width:2; stroke-opacity:0.1; fill:none" points="242.135,641.085 2352.76,641.085 "/>
<polyline clip-path="url(#clip152)" style="stroke:#000000; stroke-linecap:round; stroke-linejoin:round; stroke-width:2; stroke-opacity:0.1; fill:none" points="242.135,301.797 2352.76,301.797 "/>
<polyline clip-path="url(#clip150)" style="stroke:#000000; stroke-linecap:round; stroke-linejoin:round; stroke-width:4; stroke-opacity:1; fill:none" points="242.135,1423.18 242.135,123.472 "/>
<polyline clip-path="url(#clip150)" style="stroke:#000000; stroke-linecap:round; stroke-linejoin:round; stroke-width:4; stroke-opacity:1; fill:none" points="242.135,1319.66 261.032,1319.66 "/>
<polyline clip-path="url(#clip150)" style="stroke:#000000; stroke-linecap:round; stroke-linejoin:round; stroke-width:4; stroke-opacity:1; fill:none" points="242.135,980.372 261.032,980.372 "/>
<polyline clip-path="url(#clip150)" style="stroke:#000000; stroke-linecap:round; stroke-linejoin:round; stroke-width:4; stroke-opacity:1; fill:none" points="242.135,641.085 261.032,641.085 "/>
<polyline clip-path="url(#clip150)" style="stroke:#000000; stroke-linecap:round; stroke-linejoin:round; stroke-width:4; stroke-opacity:1; fill:none" points="242.135,301.797 261.032,301.797 "/>
<path clip-path="url(#clip150)" d="M114.26 1320.11 L143.936 1320.11 L143.936 1324.05 L114.26 1324.05 L114.26 1320.11 Z" fill="#000000" fill-rule="nonzero" fill-opacity="1" /><path clip-path="url(#clip150)" d="M166.876 1306.45 L155.07 1324.9 L166.876 1324.9 L166.876 1306.45 M165.649 1302.38 L171.528 1302.38 L171.528 1324.9 L176.459 1324.9 L176.459 1328.79 L171.528 1328.79 L171.528 1336.94 L166.876 1336.94 L166.876 1328.79 L151.274 1328.79 L151.274 1324.28 L165.649 1302.38 Z" fill="#000000" fill-rule="nonzero" fill-opacity="1" /><path clip-path="url(#clip150)" d="M194.19 1305.46 Q190.579 1305.46 188.75 1309.02 Q186.945 1312.56 186.945 1319.69 Q186.945 1326.8 188.75 1330.37 Q190.579 1333.91 194.19 1333.91 Q197.825 1333.91 199.63 1330.37 Q201.459 1326.8 201.459 1319.69 Q201.459 1312.56 199.63 1309.02 Q197.825 1305.46 194.19 1305.46 M194.19 1301.75 Q200 1301.75 203.056 1306.36 Q206.135 1310.94 206.135 1319.69 Q206.135 1328.42 203.056 1333.03 Q200 1337.61 194.19 1337.61 Q188.38 1337.61 185.301 1333.03 Q182.246 1328.42 182.246 1319.69 Q182.246 1310.94 185.301 1306.36 Q188.38 1301.75 194.19 1301.75 Z" fill="#000000" fill-rule="nonzero" fill-opacity="1" /><path clip-path="url(#clip150)" d="M114.26 980.824 L143.936 980.824 L143.936 984.759 L114.26 984.759 L114.26 980.824 Z" fill="#000000" fill-rule="nonzero" fill-opacity="1" /><path clip-path="url(#clip150)" d="M158.056 993.717 L174.376 993.717 L174.376 997.652 L152.431 997.652 L152.431 993.717 Q155.093 990.963 159.677 986.333 Q164.283 981.68 165.464 980.338 Q167.709 977.814 168.589 976.078 Q169.491 974.319 169.491 972.629 Q169.491 969.875 167.547 968.139 Q165.626 966.402 162.524 966.402 Q160.325 966.402 157.871 967.166 Q155.44 967.93 152.663 969.481 L152.663 964.759 Q155.487 963.625 157.94 963.046 Q160.394 962.467 162.431 962.467 Q167.802 962.467 170.996 965.152 Q174.19 967.838 174.19 972.328 Q174.19 974.458 173.38 976.379 Q172.593 978.277 170.487 980.87 Q169.908 981.541 166.806 984.759 Q163.704 987.953 158.056 993.717 Z" fill="#000000" fill-rule="nonzero" fill-opacity="1" /><path clip-path="url(#clip150)" d="M194.19 966.171 Q190.579 966.171 188.75 969.736 Q186.945 973.277 186.945 980.407 Q186.945 987.513 188.75 991.078 Q190.579 994.62 194.19 994.62 Q197.825 994.62 199.63 991.078 Q201.459 987.513 201.459 980.407 Q201.459 973.277 199.63 969.736 Q197.825 966.171 194.19 966.171 M194.19 962.467 Q200 962.467 203.056 967.074 Q206.135 971.657 206.135 980.407 Q206.135 989.134 203.056 993.74 Q200 998.324 194.19 998.324 Q188.38 998.324 185.301 993.74 Q182.246 989.134 182.246 980.407 Q182.246 971.657 185.301 967.074 Q188.38 962.467 194.19 962.467 Z" fill="#000000" fill-rule="nonzero" fill-opacity="1" /><path clip-path="url(#clip150)" d="M194.19 626.884 Q190.579 626.884 188.75 630.448 Q186.945 633.99 186.945 641.12 Q186.945 648.226 188.75 651.791 Q190.579 655.332 194.19 655.332 Q197.825 655.332 199.63 651.791 Q201.459 648.226 201.459 641.12 Q201.459 633.99 199.63 630.448 Q197.825 626.884 194.19 626.884 M194.19 623.18 Q200 623.18 203.056 627.786 Q206.135 632.37 206.135 641.12 Q206.135 649.846 203.056 654.453 Q200 659.036 194.19 659.036 Q188.38 659.036 185.301 654.453 Q182.246 649.846 182.246 641.12 Q182.246 632.37 185.301 627.786 Q188.38 623.18 194.19 623.18 Z" fill="#000000" fill-rule="nonzero" fill-opacity="1" /><path clip-path="url(#clip150)" d="M158.056 315.142 L174.376 315.142 L174.376 319.077 L152.431 319.077 L152.431 315.142 Q155.093 312.388 159.677 307.758 Q164.283 303.105 165.464 301.763 Q167.709 299.24 168.589 297.503 Q169.491 295.744 169.491 294.054 Q169.491 291.3 167.547 289.564 Q165.626 287.828 162.524 287.828 Q160.325 287.828 157.871 288.591 Q155.44 289.355 152.663 290.906 L152.663 286.184 Q155.487 285.05 157.94 284.471 Q160.394 283.892 162.431 283.892 Q167.802 283.892 170.996 286.578 Q174.19 289.263 174.19 293.753 Q174.19 295.883 173.38 297.804 Q172.593 299.703 170.487 302.295 Q169.908 302.966 166.806 306.184 Q163.704 309.378 158.056 315.142 Z" fill="#000000" fill-rule="nonzero" fill-opacity="1" /><path clip-path="url(#clip150)" d="M194.19 287.596 Q190.579 287.596 188.75 291.161 Q186.945 294.703 186.945 301.832 Q186.945 308.939 188.75 312.503 Q190.579 316.045 194.19 316.045 Q197.825 316.045 199.63 312.503 Q201.459 308.939 201.459 301.832 Q201.459 294.703 199.63 291.161 Q197.825 287.596 194.19 287.596 M194.19 283.892 Q200 283.892 203.056 288.499 Q206.135 293.082 206.135 301.832 Q206.135 310.559 203.056 315.165 Q200 319.749 194.19 319.749 Q188.38 319.749 185.301 315.165 Q182.246 310.559 182.246 301.832 Q182.246 293.082 185.301 288.499 Q188.38 283.892 194.19 283.892 Z" fill="#000000" fill-rule="nonzero" fill-opacity="1" /><path clip-path="url(#clip150)" d="M21.7677 964.775 L58.7206 964.775 L58.7206 957.008 Q58.7206 947.173 54.2646 942.622 Q49.8086 938.039 40.1964 938.039 Q30.6479 938.039 26.2237 942.622 Q21.7677 947.173 21.7677 957.008 L21.7677 964.775 M16.4842 971.204 L16.4842 957.995 Q16.4842 944.182 22.2451 937.72 Q27.9743 931.259 40.1964 931.259 Q52.4822 931.259 58.2432 937.752 Q64.0042 944.245 64.0042 957.995 L64.0042 971.204 L16.4842 971.204 Z" fill="#000000" fill-rule="nonzero" fill-opacity="1" /><path clip-path="url(#clip150)" d="M28.3562 921.265 L28.3562 915.409 L64.0042 915.409 L64.0042 921.265 L28.3562 921.265 M14.479 921.265 L14.479 915.409 L21.895 915.409 L21.895 921.265 L14.479 921.265 Z" fill="#000000" fill-rule="nonzero" fill-opacity="1" /><path clip-path="url(#clip150)" d="M35.1993 875.4 Q31.2526 873.204 29.3747 870.148 Q27.4968 867.093 27.4968 862.955 Q27.4968 857.385 31.4117 854.361 Q35.2948 851.338 42.4881 851.338 L64.0042 851.338 L64.0042 857.226 L42.679 857.226 Q37.5546 857.226 35.072 859.04 Q32.5894 860.854 32.5894 864.578 Q32.5894 869.13 35.6131 871.772 Q38.6368 874.413 43.8567 874.413 L64.0042 874.413 L64.0042 880.302 L42.679 880.302 Q37.5228 880.302 35.072 882.116 Q32.5894 883.93 32.5894 887.718 Q32.5894 892.206 35.6449 894.847 Q38.6686 897.489 43.8567 897.489 L64.0042 897.489 L64.0042 903.377 L28.3562 903.377 L28.3562 897.489 L33.8944 897.489 Q30.616 895.484 29.0564 892.683 Q27.4968 889.882 27.4968 886.031 Q27.4968 882.148 29.4702 879.442 Q31.4436 876.705 35.1993 875.4 Z" fill="#000000" fill-rule="nonzero" fill-opacity="1" /><path clip-path="url(#clip150)" d="M44.7161 809.165 L47.5806 809.165 L47.5806 836.092 Q53.6281 835.71 56.8109 832.463 Q59.9619 829.185 59.9619 823.36 Q59.9619 819.987 59.1344 816.836 Q58.3069 813.653 56.6518 810.534 L62.1899 810.534 Q63.5267 813.685 64.227 816.995 Q64.9272 820.305 64.9272 823.711 Q64.9272 832.241 59.9619 837.238 Q54.9967 842.203 46.5303 842.203 Q37.7774 842.203 32.6531 837.492 Q27.4968 832.75 27.4968 824.729 Q27.4968 817.536 32.1438 813.366 Q36.7589 809.165 44.7161 809.165 M42.9973 815.021 Q38.1912 815.085 35.3266 817.727 Q32.4621 820.337 32.4621 824.665 Q32.4621 829.567 35.2312 832.527 Q38.0002 835.455 43.0292 835.901 L42.9973 815.021 Z" fill="#000000" fill-rule="nonzero" fill-opacity="1" /><path clip-path="url(#clip150)" d="M42.4881 769.92 L64.0042 769.92 L64.0042 775.777 L42.679 775.777 Q37.6183 775.777 35.1038 777.75 Q32.5894 779.724 32.5894 783.67 Q32.5894 788.413 35.6131 791.15 Q38.6368 793.887 43.8567 793.887 L64.0042 793.887 L64.0042 799.775 L28.3562 799.775 L28.3562 793.887 L33.8944 793.887 Q30.6797 791.787 29.0883 788.954 Q27.4968 786.089 27.4968 782.365 Q27.4968 776.222 31.3163 773.071 Q35.1038 769.92 42.4881 769.92 Z" fill="#000000" fill-rule="nonzero" fill-opacity="1" /><path clip-path="url(#clip150)" d="M29.4065 735.514 L34.9447 735.514 Q33.6716 737.996 33.035 740.67 Q32.3984 743.344 32.3984 746.208 Q32.3984 750.569 33.7352 752.765 Q35.072 754.929 37.7456 754.929 Q39.7826 754.929 40.9603 753.369 Q42.1061 751.81 43.1565 747.099 L43.6021 745.094 Q44.9389 738.856 47.3897 736.246 Q49.8086 733.604 54.1691 733.604 Q59.1344 733.604 62.0308 737.551 Q64.9272 741.466 64.9272 748.341 Q64.9272 751.205 64.3543 754.324 Q63.8132 757.412 62.6992 760.849 L56.6518 760.849 Q58.3387 757.603 59.198 754.452 Q60.0256 751.301 60.0256 748.213 Q60.0256 744.076 58.6251 741.848 Q57.1929 739.62 54.6147 739.62 Q52.2276 739.62 50.9545 741.243 Q49.6813 742.834 48.5037 748.277 L48.0262 750.314 Q46.8804 755.757 44.5251 758.176 Q42.138 760.595 38.0002 760.595 Q32.9713 760.595 30.2341 757.03 Q27.4968 753.465 27.4968 746.908 Q27.4968 743.662 27.9743 740.797 Q28.4517 737.933 29.4065 735.514 Z" fill="#000000" fill-rule="nonzero" fill-opacity="1" /><path clip-path="url(#clip150)" d="M28.3562 724.278 L28.3562 718.422 L64.0042 718.422 L64.0042 724.278 L28.3562 724.278 M14.479 724.278 L14.479 718.422 L21.895 718.422 L21.895 724.278 L14.479 724.278 Z" fill="#000000" fill-rule="nonzero" fill-opacity="1" /><path clip-path="url(#clip150)" d="M32.4621 692.354 Q32.4621 697.065 36.1542 699.802 Q39.8145 702.539 46.212 702.539 Q52.6095 702.539 56.3017 699.834 Q59.9619 697.097 59.9619 692.354 Q59.9619 687.675 56.2698 684.938 Q52.5777 682.201 46.212 682.201 Q39.8781 682.201 36.186 684.938 Q32.4621 687.675 32.4621 692.354 M27.4968 692.354 Q27.4968 684.715 32.4621 680.355 Q37.4273 675.994 46.212 675.994 Q54.9649 675.994 59.9619 680.355 Q64.9272 684.715 64.9272 692.354 Q64.9272 700.025 59.9619 704.385 Q54.9649 708.714 46.212 708.714 Q37.4273 708.714 32.4621 704.385 Q27.4968 700.025 27.4968 692.354 Z" fill="#000000" fill-rule="nonzero" fill-opacity="1" /><path clip-path="url(#clip150)" d="M42.4881 636.654 L64.0042 636.654 L64.0042 642.511 L42.679 642.511 Q37.6183 642.511 35.1038 644.484 Q32.5894 646.457 32.5894 650.404 Q32.5894 655.147 35.6131 657.884 Q38.6368 660.621 43.8567 660.621 L64.0042 660.621 L64.0042 666.509 L28.3562 666.509 L28.3562 660.621 L33.8944 660.621 Q30.6797 658.52 29.0883 655.688 Q27.4968 652.823 27.4968 649.099 Q27.4968 642.956 31.3163 639.805 Q35.1038 636.654 42.4881 636.654 Z" fill="#000000" fill-rule="nonzero" fill-opacity="1" /><path clip-path="url(#clip150)" d="M58.5933 597.887 L58.5933 575.448 L64.0042 575.448 L64.0042 605.621 L58.5933 605.621 Q54.8057 601.961 48.44 595.659 Q42.0425 589.325 40.1964 587.702 Q36.7271 584.615 34.34 583.405 Q31.921 582.164 29.5975 582.164 Q25.8099 582.164 23.4228 584.837 Q21.0356 587.479 21.0356 591.744 Q21.0356 594.768 22.086 598.142 Q23.1363 601.484 25.2688 605.303 L18.7758 605.303 Q17.2162 601.42 16.4205 598.046 Q15.6248 594.672 15.6248 591.872 Q15.6248 584.487 19.3169 580.095 Q23.009 575.703 29.1837 575.703 Q32.112 575.703 34.7537 576.817 Q37.3637 577.899 40.9285 580.795 Q41.8515 581.591 46.2757 585.856 Q50.668 590.121 58.5933 597.887 Z" fill="#000000" fill-rule="nonzero" fill-opacity="1" /><path clip-path="url(#clip150)" d="M843.379 12.096 L881.62 12.096 L881.62 18.9825 L851.562 18.9825 L851.562 36.8875 L880.364 36.8875 L880.364 43.7741 L851.562 43.7741 L851.562 65.6895 L882.349 65.6895 L882.349 72.576 L843.379 72.576 L843.379 12.096 Z" fill="#000000" fill-rule="nonzero" fill-opacity="1" /><path clip-path="url(#clip150)" d="M924.398 28.5427 L924.398 35.5912 Q921.238 33.9709 917.835 33.1607 Q914.432 32.3505 910.786 32.3505 Q905.237 32.3505 902.442 34.0519 Q899.687 35.7533 899.687 39.156 Q899.687 41.7486 901.672 43.2475 Q903.657 44.7058 909.652 46.0426 L912.204 46.6097 Q920.144 48.3111 923.466 51.4303 Q926.828 54.509 926.828 60.0587 Q926.828 66.3781 921.805 70.0644 Q916.822 73.7508 908.072 73.7508 Q904.427 73.7508 900.457 73.0216 Q896.527 72.3329 892.152 70.9151 L892.152 63.2184 Q896.284 65.3654 900.295 66.4591 Q904.305 67.5124 908.234 67.5124 Q913.501 67.5124 916.336 65.73 Q919.172 63.9071 919.172 60.6258 Q919.172 57.5877 917.106 55.9673 Q915.08 54.3469 908.153 52.8481 L905.561 52.2405 Q898.634 50.7821 895.555 47.7845 Q892.476 44.7463 892.476 39.4801 Q892.476 33.0797 897.013 29.5959 Q901.55 26.1121 909.895 26.1121 Q914.027 26.1121 917.673 26.7198 Q921.319 27.3274 924.398 28.5427 Z" fill="#000000" fill-rule="nonzero" fill-opacity="1" /><path clip-path="url(#clip150)" d="M945.908 65.7705 L945.908 89.8329 L938.414 89.8329 L938.414 27.2059 L945.908 27.2059 L945.908 34.0924 Q948.257 30.0415 951.822 28.0971 Q955.427 26.1121 960.41 26.1121 Q968.674 26.1121 973.819 32.6746 Q979.004 39.2371 979.004 49.9314 Q979.004 60.6258 973.819 67.1883 Q968.674 73.7508 960.41 73.7508 Q955.427 73.7508 951.822 71.8063 Q948.257 69.8214 945.908 65.7705 M971.266 49.9314 Q971.266 41.7081 967.864 37.0496 Q964.501 32.3505 958.587 32.3505 Q952.673 32.3505 949.27 37.0496 Q945.908 41.7081 945.908 49.9314 Q945.908 58.1548 949.27 62.8538 Q952.673 67.5124 958.587 67.5124 Q964.501 67.5124 967.864 62.8538 Q971.266 58.1548 971.266 49.9314 Z" fill="#000000" fill-rule="nonzero" fill-opacity="1" /><path clip-path="url(#clip150)" d="M1011.98 49.7694 Q1002.94 49.7694 999.461 51.8354 Q995.977 53.9013 995.977 58.8839 Q995.977 62.8538 998.57 65.2034 Q1001.2 67.5124 1005.7 67.5124 Q1011.9 67.5124 1015.62 63.1374 Q1019.39 58.7219 1019.39 51.4303 L1019.39 49.7694 L1011.98 49.7694 M1026.84 46.6907 L1026.84 72.576 L1019.39 72.576 L1019.39 65.6895 Q1016.84 69.8214 1013.03 71.8063 Q1009.22 73.7508 1003.71 73.7508 Q996.747 73.7508 992.615 69.8619 Q988.523 65.9325 988.523 59.3701 Q988.523 51.7138 993.627 47.825 Q998.772 43.9361 1008.94 43.9361 L1019.39 43.9361 L1019.39 43.2069 Q1019.39 38.0623 1015.99 35.2672 Q1012.63 32.4315 1006.51 32.4315 Q1002.62 32.4315 998.934 33.3632 Q995.248 34.295 991.845 36.1584 L991.845 29.2718 Q995.936 27.692 999.785 26.9223 Q1003.63 26.1121 1007.28 26.1121 Q1017.12 26.1121 1021.98 31.2163 Q1026.84 36.3204 1026.84 46.6907 Z" fill="#000000" fill-rule="nonzero" fill-opacity="1" /><path clip-path="url(#clip150)" d="M1074.85 28.9478 L1074.85 35.9153 Q1071.69 34.1734 1068.49 33.3227 Q1065.33 32.4315 1062.09 32.4315 Q1054.84 32.4315 1050.83 37.0496 Q1046.82 41.6271 1046.82 49.9314 Q1046.82 58.2358 1050.83 62.8538 Q1054.84 67.4314 1062.09 67.4314 Q1065.33 67.4314 1068.49 66.5807 Q1071.69 65.6895 1074.85 63.9476 L1074.85 70.8341 Q1071.73 72.2924 1068.37 73.0216 Q1065.04 73.7508 1061.28 73.7508 Q1051.03 73.7508 1044.99 67.3098 Q1038.96 60.8689 1038.96 49.9314 Q1038.96 38.832 1045.03 32.472 Q1051.15 26.1121 1061.76 26.1121 Q1065.21 26.1121 1068.49 26.8413 Q1071.77 27.5299 1074.85 28.9478 Z" fill="#000000" fill-rule="nonzero" fill-opacity="1" /><path clip-path="url(#clip150)" d="M1087.81 27.2059 L1095.26 27.2059 L1095.26 72.576 L1087.81 72.576 L1087.81 27.2059 M1087.81 9.54393 L1095.26 9.54393 L1095.26 18.9825 L1087.81 18.9825 L1087.81 9.54393 Z" fill="#000000" fill-rule="nonzero" fill-opacity="1" /><path clip-path="url(#clip150)" d="M1128.44 32.4315 Q1122.45 32.4315 1118.96 37.1306 Q1115.48 41.7891 1115.48 49.9314 Q1115.48 58.0738 1118.92 62.7728 Q1122.41 67.4314 1128.44 67.4314 Q1134.4 67.4314 1137.88 62.7323 Q1141.36 58.0333 1141.36 49.9314 Q1141.36 41.8701 1137.88 37.1711 Q1134.4 32.4315 1128.44 32.4315 M1128.44 26.1121 Q1138.16 26.1121 1143.71 32.4315 Q1149.26 38.7509 1149.26 49.9314 Q1149.26 61.0714 1143.71 67.4314 Q1138.16 73.7508 1128.44 73.7508 Q1118.68 73.7508 1113.13 67.4314 Q1107.62 61.0714 1107.62 49.9314 Q1107.62 38.7509 1113.13 32.4315 Q1118.68 26.1121 1128.44 26.1121 Z" fill="#000000" fill-rule="nonzero" fill-opacity="1" /><path clip-path="url(#clip150)" d="M1217.85 34.0924 L1217.85 9.54393 L1225.3 9.54393 L1225.3 72.576 L1217.85 72.576 L1217.85 65.7705 Q1215.5 69.8214 1211.89 71.8063 Q1208.33 73.7508 1203.3 73.7508 Q1195.08 73.7508 1189.89 67.1883 Q1184.75 60.6258 1184.75 49.9314 Q1184.75 39.2371 1189.89 32.6746 Q1195.08 26.1121 1203.3 26.1121 Q1208.33 26.1121 1211.89 28.0971 Q1215.5 30.0415 1217.85 34.0924 M1192.45 49.9314 Q1192.45 58.1548 1195.81 62.8538 Q1199.21 67.5124 1205.13 67.5124 Q1211.04 67.5124 1214.44 62.8538 Q1217.85 58.1548 1217.85 49.9314 Q1217.85 41.7081 1214.44 37.0496 Q1211.04 32.3505 1205.13 32.3505 Q1199.21 32.3505 1195.81 37.0496 Q1192.45 41.7081 1192.45 49.9314 Z" fill="#000000" fill-rule="nonzero" fill-opacity="1" /><path clip-path="url(#clip150)" d="M1279.46 48.0275 L1279.46 51.6733 L1245.19 51.6733 Q1245.67 59.3701 1249.81 63.421 Q1253.98 67.4314 1261.39 67.4314 Q1265.69 67.4314 1269.7 66.3781 Q1273.75 65.3249 1277.72 63.2184 L1277.72 70.267 Q1273.71 71.9684 1269.49 72.8596 Q1265.28 73.7508 1260.95 73.7508 Q1250.09 73.7508 1243.73 67.4314 Q1237.41 61.1119 1237.41 50.3365 Q1237.41 39.1965 1243.41 32.6746 Q1249.44 26.1121 1259.65 26.1121 Q1268.81 26.1121 1274.11 32.0264 Q1279.46 37.9003 1279.46 48.0275 M1272.01 45.84 Q1271.92 39.7232 1268.56 36.0774 Q1265.24 32.4315 1259.73 32.4315 Q1253.49 32.4315 1249.73 35.9558 Q1246 39.4801 1245.43 45.8805 L1272.01 45.84 Z" fill="#000000" fill-rule="nonzero" fill-opacity="1" /><path clip-path="url(#clip150)" d="M1354.64 14.0809 L1354.64 22.0612 Q1349.99 19.8332 1345.85 18.7395 Q1341.72 17.6457 1337.87 17.6457 Q1331.19 17.6457 1327.54 20.2383 Q1323.94 22.8309 1323.94 27.611 Q1323.94 31.6214 1326.33 33.6873 Q1328.76 35.7128 1335.48 36.9686 L1340.43 37.9813 Q1349.58 39.7232 1353.91 44.1387 Q1358.29 48.5136 1358.29 55.8863 Q1358.29 64.6767 1352.38 69.2137 Q1346.5 73.7508 1335.12 73.7508 Q1330.82 73.7508 1325.96 72.7785 Q1321.14 71.8063 1315.96 69.9024 L1315.96 61.4765 Q1320.94 64.2716 1325.72 65.6895 Q1330.5 67.1073 1335.12 67.1073 Q1342.13 67.1073 1345.93 64.3527 Q1349.74 61.598 1349.74 56.4939 Q1349.74 52.0379 1346.99 49.5264 Q1344.27 47.0148 1338.04 45.759 L1333.05 44.7868 Q1323.9 42.9639 1319.81 39.075 Q1315.71 35.1862 1315.71 28.2591 Q1315.71 20.2383 1321.35 15.6203 Q1327.02 11.0023 1336.94 11.0023 Q1341.2 11.0023 1345.61 11.7719 Q1350.03 12.5416 1354.64 14.0809 Z" fill="#000000" fill-rule="nonzero" fill-opacity="1" /><path clip-path="url(#clip150)" d="M1388.31 32.4315 Q1382.31 32.4315 1378.83 37.1306 Q1375.34 41.7891 1375.34 49.9314 Q1375.34 58.0738 1378.79 62.7728 Q1382.27 67.4314 1388.31 67.4314 Q1394.26 67.4314 1397.75 62.7323 Q1401.23 58.0333 1401.23 49.9314 Q1401.23 41.8701 1397.75 37.1711 Q1394.26 32.4315 1388.31 32.4315 M1388.31 26.1121 Q1398.03 26.1121 1403.58 32.4315 Q1409.13 38.7509 1409.13 49.9314 Q1409.13 61.0714 1403.58 67.4314 Q1398.03 73.7508 1388.31 73.7508 Q1378.54 73.7508 1372.99 67.4314 Q1367.49 61.0714 1367.49 49.9314 Q1367.49 38.7509 1372.99 32.4315 Q1378.54 26.1121 1388.31 26.1121 Z" fill="#000000" fill-rule="nonzero" fill-opacity="1" /><path clip-path="url(#clip150)" d="M1421.48 9.54393 L1428.94 9.54393 L1428.94 72.576 L1421.48 72.576 L1421.48 9.54393 Z" fill="#000000" fill-rule="nonzero" fill-opacity="1" /><path clip-path="url(#clip150)" d="M1443.76 54.671 L1443.76 27.2059 L1451.22 27.2059 L1451.22 54.3874 Q1451.22 60.8284 1453.73 64.0691 Q1456.24 67.2693 1461.26 67.2693 Q1467.3 67.2693 1470.78 63.421 Q1474.31 59.5726 1474.31 52.9291 L1474.31 27.2059 L1481.76 27.2059 L1481.76 72.576 L1474.31 72.576 L1474.31 65.6084 Q1471.59 69.7404 1467.99 71.7658 Q1464.42 73.7508 1459.68 73.7508 Q1451.87 73.7508 1447.81 68.8897 Q1443.76 64.0286 1443.76 54.671 M1462.52 26.1121 L1462.52 26.1121 Z" fill="#000000" fill-rule="nonzero" fill-opacity="1" /><path clip-path="url(#clip150)" d="M1529.76 28.9478 L1529.76 35.9153 Q1526.6 34.1734 1523.4 33.3227 Q1520.25 32.4315 1517 32.4315 Q1509.75 32.4315 1505.74 37.0496 Q1501.73 41.6271 1501.73 49.9314 Q1501.73 58.2358 1505.74 62.8538 Q1509.75 67.4314 1517 67.4314 Q1520.25 67.4314 1523.4 66.5807 Q1526.6 65.6895 1529.76 63.9476 L1529.76 70.8341 Q1526.65 72.2924 1523.28 73.0216 Q1519.96 73.7508 1516.19 73.7508 Q1505.95 73.7508 1499.91 67.3098 Q1493.87 60.8689 1493.87 49.9314 Q1493.87 38.832 1499.95 32.472 Q1506.07 26.1121 1516.68 26.1121 Q1520.12 26.1121 1523.4 26.8413 Q1526.69 27.5299 1529.76 28.9478 Z" fill="#000000" fill-rule="nonzero" fill-opacity="1" /><path clip-path="url(#clip150)" d="M1542.73 27.2059 L1550.18 27.2059 L1550.18 72.576 L1542.73 72.576 L1542.73 27.2059 M1542.73 9.54393 L1550.18 9.54393 L1550.18 18.9825 L1542.73 18.9825 L1542.73 9.54393 Z" fill="#000000" fill-rule="nonzero" fill-opacity="1" /><path clip-path="url(#clip150)" d="M1583.36 32.4315 Q1577.36 32.4315 1573.88 37.1306 Q1570.4 41.7891 1570.4 49.9314 Q1570.4 58.0738 1573.84 62.7728 Q1577.32 67.4314 1583.36 67.4314 Q1589.31 67.4314 1592.8 62.7323 Q1596.28 58.0333 1596.28 49.9314 Q1596.28 41.8701 1592.8 37.1711 Q1589.31 32.4315 1583.36 32.4315 M1583.36 26.1121 Q1593.08 26.1121 1598.63 32.4315 Q1604.18 38.7509 1604.18 49.9314 Q1604.18 61.0714 1598.63 67.4314 Q1593.08 73.7508 1583.36 73.7508 Q1573.6 73.7508 1568.05 67.4314 Q1562.54 61.0714 1562.54 49.9314 Q1562.54 38.7509 1568.05 32.4315 Q1573.6 26.1121 1583.36 26.1121 Z" fill="#000000" fill-rule="nonzero" fill-opacity="1" /><path clip-path="url(#clip150)" d="M1654.25 45.1919 L1654.25 72.576 L1646.8 72.576 L1646.8 45.4349 Q1646.8 38.994 1644.28 35.7938 Q1641.77 32.5936 1636.75 32.5936 Q1630.71 32.5936 1627.23 36.4419 Q1623.75 40.2903 1623.75 46.9338 L1623.75 72.576 L1616.25 72.576 L1616.25 27.2059 L1623.75 27.2059 L1623.75 34.2544 Q1626.42 30.163 1630.02 28.1376 Q1633.67 26.1121 1638.41 26.1121 Q1646.23 26.1121 1650.24 30.9732 Q1654.25 35.7938 1654.25 45.1919 Z" fill="#000000" fill-rule="nonzero" fill-opacity="1" /><path clip-path="url(#clip150)" d="M1707.92 48.0275 L1707.92 51.6733 L1673.65 51.6733 Q1674.14 59.3701 1678.27 63.421 Q1682.44 67.4314 1689.86 67.4314 Q1694.15 67.4314 1698.16 66.3781 Q1702.21 65.3249 1706.18 63.2184 L1706.18 70.267 Q1702.17 71.9684 1697.96 72.8596 Q1693.75 73.7508 1689.41 73.7508 Q1678.55 73.7508 1672.19 67.4314 Q1665.88 61.1119 1665.88 50.3365 Q1665.88 39.1965 1671.87 32.6746 Q1677.91 26.1121 1688.11 26.1121 Q1697.27 26.1121 1702.58 32.0264 Q1707.92 37.9003 1707.92 48.0275 M1700.47 45.84 Q1700.39 39.7232 1697.03 36.0774 Q1693.7 32.4315 1688.2 32.4315 Q1681.96 32.4315 1678.19 35.9558 Q1674.46 39.4801 1673.9 45.8805 L1700.47 45.84 Z" fill="#000000" fill-rule="nonzero" fill-opacity="1" /><path clip-path="url(#clip150)" d="M1749.08 28.5427 L1749.08 35.5912 Q1745.92 33.9709 1742.52 33.1607 Q1739.12 32.3505 1735.47 32.3505 Q1729.92 32.3505 1727.12 34.0519 Q1724.37 35.7533 1724.37 39.156 Q1724.37 41.7486 1726.36 43.2475 Q1728.34 44.7058 1734.34 46.0426 L1736.89 46.6097 Q1744.83 48.3111 1748.15 51.4303 Q1751.51 54.509 1751.51 60.0587 Q1751.51 66.3781 1746.49 70.0644 Q1741.51 73.7508 1732.76 73.7508 Q1729.11 73.7508 1725.14 73.0216 Q1721.21 72.3329 1716.84 70.9151 L1716.84 63.2184 Q1720.97 65.3654 1724.98 66.4591 Q1728.99 67.5124 1732.92 67.5124 Q1738.18 67.5124 1741.02 65.73 Q1743.85 63.9071 1743.85 60.6258 Q1743.85 57.5877 1741.79 55.9673 Q1739.76 54.3469 1732.84 52.8481 L1730.24 52.2405 Q1723.32 50.7821 1720.24 47.7845 Q1717.16 44.7463 1717.16 39.4801 Q1717.16 33.0797 1721.7 29.5959 Q1726.23 26.1121 1734.58 26.1121 Q1738.71 26.1121 1742.36 26.7198 Q1746 27.3274 1749.08 28.5427 Z" fill="#000000" fill-rule="nonzero" fill-opacity="1" /><circle clip-path="url(#clip152)" cx="1857.75" cy="984.147" r="14.4" fill="#009af9" fill-rule="evenodd" fill-opacity="1" stroke="#000000" stroke-opacity="1" stroke-width="3.2"/>
<circle clip-path="url(#clip152)" cx="1917.83" cy="1043.05" r="14.4" fill="#009af9" fill-rule="evenodd" fill-opacity="1" stroke="#000000" stroke-opacity="1" stroke-width="3.2"/>
<circle clip-path="url(#clip152)" cx="1930.64" cy="1113.77" r="14.4" fill="#009af9" fill-rule="evenodd" fill-opacity="1" stroke="#000000" stroke-opacity="1" stroke-width="3.2"/>
<circle clip-path="url(#clip152)" cx="2003.5" cy="1073.62" r="14.4" fill="#009af9" fill-rule="evenodd" fill-opacity="1" stroke="#000000" stroke-opacity="1" stroke-width="3.2"/>
<circle clip-path="url(#clip152)" cx="2020.15" cy="1146.12" r="14.4" fill="#009af9" fill-rule="evenodd" fill-opacity="1" stroke="#000000" stroke-opacity="1" stroke-width="3.2"/>
<circle clip-path="url(#clip152)" cx="1954.36" cy="1179.54" r="14.4" fill="#009af9" fill-rule="evenodd" fill-opacity="1" stroke="#000000" stroke-opacity="1" stroke-width="3.2"/>
<circle clip-path="url(#clip152)" cx="2085.26" cy="1105.27" r="14.4" fill="#009af9" fill-rule="evenodd" fill-opacity="1" stroke="#000000" stroke-opacity="1" stroke-width="3.2"/>
<circle clip-path="url(#clip152)" cx="901.82" cy="406.527" r="14.4" fill="#e26f46" fill-rule="evenodd" fill-opacity="1" stroke="#000000" stroke-opacity="1" stroke-width="3.2"/>
<circle clip-path="url(#clip152)" cx="871.669" cy="294.923" r="14.4" fill="#e26f46" fill-rule="evenodd" fill-opacity="1" stroke="#000000" stroke-opacity="1" stroke-width="3.2"/>
<circle clip-path="url(#clip152)" cx="921.96" cy="343.002" r="14.4" fill="#e26f46" fill-rule="evenodd" fill-opacity="1" stroke="#000000" stroke-opacity="1" stroke-width="3.2"/>
<circle clip-path="url(#clip152)" cx="846.121" cy="360.775" r="14.4" fill="#e26f46" fill-rule="evenodd" fill-opacity="1" stroke="#000000" stroke-opacity="1" stroke-width="3.2"/>
<circle clip-path="url(#clip152)" cx="1017.7" cy="342.524" r="14.4" fill="#e26f46" fill-rule="evenodd" fill-opacity="1" stroke="#000000" stroke-opacity="1" stroke-width="3.2"/>
<circle clip-path="url(#clip152)" cx="1015.33" cy="274.671" r="14.4" fill="#e26f46" fill-rule="evenodd" fill-opacity="1" stroke="#000000" stroke-opacity="1" stroke-width="3.2"/>
<circle clip-path="url(#clip152)" cx="1083.35" cy="307.546" r="14.4" fill="#e26f46" fill-rule="evenodd" fill-opacity="1" stroke="#000000" stroke-opacity="1" stroke-width="3.2"/>
<circle clip-path="url(#clip152)" cx="1030.09" cy="405.988" r="14.4" fill="#e26f46" fill-rule="evenodd" fill-opacity="1" stroke="#000000" stroke-opacity="1" stroke-width="3.2"/>
<circle clip-path="url(#clip152)" cx="1096.48" cy="367.543" r="14.4" fill="#e26f46" fill-rule="evenodd" fill-opacity="1" stroke="#000000" stroke-opacity="1" stroke-width="3.2"/>
<circle clip-path="url(#clip152)" cx="1131.71" cy="436.009" r="14.4" fill="#e26f46" fill-rule="evenodd" fill-opacity="1" stroke="#000000" stroke-opacity="1" stroke-width="3.2"/>
<circle clip-path="url(#clip152)" cx="1202.46" cy="180.247" r="14.4" fill="#e26f46" fill-rule="evenodd" fill-opacity="1" stroke="#000000" stroke-opacity="1" stroke-width="3.2"/>
<circle clip-path="url(#clip152)" cx="1261.4" cy="311.148" r="14.4" fill="#e26f46" fill-rule="evenodd" fill-opacity="1" stroke="#000000" stroke-opacity="1" stroke-width="3.2"/>
<circle clip-path="url(#clip152)" cx="1297.95" cy="192.373" r="14.4" fill="#e26f46" fill-rule="evenodd" fill-opacity="1" stroke="#000000" stroke-opacity="1" stroke-width="3.2"/>
<circle clip-path="url(#clip152)" cx="1139.47" cy="239.083" r="14.4" fill="#e26f46" fill-rule="evenodd" fill-opacity="1" stroke="#000000" stroke-opacity="1" stroke-width="3.2"/>
<circle clip-path="url(#clip152)" cx="1230.84" cy="250.155" r="14.4" fill="#e26f46" fill-rule="evenodd" fill-opacity="1" stroke="#000000" stroke-opacity="1" stroke-width="3.2"/>
<circle clip-path="url(#clip152)" cx="1177.87" cy="297.715" r="14.4" fill="#e26f46" fill-rule="evenodd" fill-opacity="1" stroke="#000000" stroke-opacity="1" stroke-width="3.2"/>
<circle clip-path="url(#clip152)" cx="1316.02" cy="263.797" r="14.4" fill="#e26f46" fill-rule="evenodd" fill-opacity="1" stroke="#000000" stroke-opacity="1" stroke-width="3.2"/>
<circle clip-path="url(#clip152)" cx="1267.34" cy="380.976" r="14.4" fill="#e26f46" fill-rule="evenodd" fill-opacity="1" stroke="#000000" stroke-opacity="1" stroke-width="3.2"/>
<circle clip-path="url(#clip152)" cx="1193.65" cy="357.192" r="14.4" fill="#e26f46" fill-rule="evenodd" fill-opacity="1" stroke="#000000" stroke-opacity="1" stroke-width="3.2"/>
<circle clip-path="url(#clip152)" cx="1358.51" cy="336.115" r="14.4" fill="#e26f46" fill-rule="evenodd" fill-opacity="1" stroke="#000000" stroke-opacity="1" stroke-width="3.2"/>
<circle clip-path="url(#clip152)" cx="1371.96" cy="396.837" r="14.4" fill="#e26f46" fill-rule="evenodd" fill-opacity="1" stroke="#000000" stroke-opacity="1" stroke-width="3.2"/>
<circle clip-path="url(#clip152)" cx="1414.74" cy="284.384" r="14.4" fill="#e26f46" fill-rule="evenodd" fill-opacity="1" stroke="#000000" stroke-opacity="1" stroke-width="3.2"/>
<circle clip-path="url(#clip152)" cx="1439.74" cy="343.089" r="14.4" fill="#e26f46" fill-rule="evenodd" fill-opacity="1" stroke="#000000" stroke-opacity="1" stroke-width="3.2"/>
<circle clip-path="url(#clip152)" cx="1478.04" cy="406.508" r="14.4" fill="#e26f46" fill-rule="evenodd" fill-opacity="1" stroke="#000000" stroke-opacity="1" stroke-width="3.2"/>
<circle clip-path="url(#clip152)" cx="1529.07" cy="930.329" r="14.4" fill="#e26f46" fill-rule="evenodd" fill-opacity="1" stroke="#000000" stroke-opacity="1" stroke-width="3.2"/>
<circle clip-path="url(#clip152)" cx="1714.41" cy="797.713" r="14.4" fill="#e26f46" fill-rule="evenodd" fill-opacity="1" stroke="#000000" stroke-opacity="1" stroke-width="3.2"/>
<circle clip-path="url(#clip152)" cx="1541.38" cy="846.08" r="14.4" fill="#e26f46" fill-rule="evenodd" fill-opacity="1" stroke="#000000" stroke-opacity="1" stroke-width="3.2"/>
<circle clip-path="url(#clip152)" cx="1612.47" cy="876.52" r="14.4" fill="#e26f46" fill-rule="evenodd" fill-opacity="1" stroke="#000000" stroke-opacity="1" stroke-width="3.2"/>
<circle clip-path="url(#clip152)" cx="1654.36" cy="928.925" r="14.4" fill="#e26f46" fill-rule="evenodd" fill-opacity="1" stroke="#000000" stroke-opacity="1" stroke-width="3.2"/>
<circle clip-path="url(#clip152)" cx="1775.41" cy="843.975" r="14.4" fill="#e26f46" fill-rule="evenodd" fill-opacity="1" stroke="#000000" stroke-opacity="1" stroke-width="3.2"/>
<circle clip-path="url(#clip152)" cx="1718.64" cy="575.509" r="14.4" fill="#e26f46" fill-rule="evenodd" fill-opacity="1" stroke="#000000" stroke-opacity="1" stroke-width="3.2"/>
<circle clip-path="url(#clip152)" cx="1556.19" cy="583.241" r="14.4" fill="#e26f46" fill-rule="evenodd" fill-opacity="1" stroke="#000000" stroke-opacity="1" stroke-width="3.2"/>
<circle clip-path="url(#clip152)" cx="1711.07" cy="654.449" r="14.4" fill="#e26f46" fill-rule="evenodd" fill-opacity="1" stroke="#000000" stroke-opacity="1" stroke-width="3.2"/>
<circle clip-path="url(#clip152)" cx="1554.4" cy="763.536" r="14.4" fill="#e26f46" fill-rule="evenodd" fill-opacity="1" stroke="#000000" stroke-opacity="1" stroke-width="3.2"/>
<circle clip-path="url(#clip152)" cx="1468.7" cy="781.803" r="14.4" fill="#e26f46" fill-rule="evenodd" fill-opacity="1" stroke="#000000" stroke-opacity="1" stroke-width="3.2"/>
<circle clip-path="url(#clip152)" cx="1628.37" cy="547.274" r="14.4" fill="#e26f46" fill-rule="evenodd" fill-opacity="1" stroke="#000000" stroke-opacity="1" stroke-width="3.2"/>
<circle clip-path="url(#clip152)" cx="1422.75" cy="655.802" r="14.4" fill="#e26f46" fill-rule="evenodd" fill-opacity="1" stroke="#000000" stroke-opacity="1" stroke-width="3.2"/>
<circle clip-path="url(#clip152)" cx="1642.72" cy="681.692" r="14.4" fill="#e26f46" fill-rule="evenodd" fill-opacity="1" stroke="#000000" stroke-opacity="1" stroke-width="3.2"/>
<circle clip-path="url(#clip152)" cx="1648.73" cy="614.029" r="14.4" fill="#e26f46" fill-rule="evenodd" fill-opacity="1" stroke="#000000" stroke-opacity="1" stroke-width="3.2"/>
<circle clip-path="url(#clip152)" cx="1631.62" cy="743.288" r="14.4" fill="#e26f46" fill-rule="evenodd" fill-opacity="1" stroke="#000000" stroke-opacity="1" stroke-width="3.2"/>
<circle clip-path="url(#clip152)" cx="1509.24" cy="653.288" r="14.4" fill="#e26f46" fill-rule="evenodd" fill-opacity="1" stroke="#000000" stroke-opacity="1" stroke-width="3.2"/>
<circle clip-path="url(#clip152)" cx="1788.12" cy="624.383" r="14.4" fill="#e26f46" fill-rule="evenodd" fill-opacity="1" stroke="#000000" stroke-opacity="1" stroke-width="3.2"/>
<circle clip-path="url(#clip152)" cx="1494.17" cy="714.026" r="14.4" fill="#e26f46" fill-rule="evenodd" fill-opacity="1" stroke="#000000" stroke-opacity="1" stroke-width="3.2"/>
<circle clip-path="url(#clip152)" cx="1570.23" cy="701.73" r="14.4" fill="#e26f46" fill-rule="evenodd" fill-opacity="1" stroke="#000000" stroke-opacity="1" stroke-width="3.2"/>
<circle clip-path="url(#clip152)" cx="1707.57" cy="721.787" r="14.4" fill="#e26f46" fill-rule="evenodd" fill-opacity="1" stroke="#000000" stroke-opacity="1" stroke-width="3.2"/>
<circle clip-path="url(#clip152)" cx="1583.03" cy="642.29" r="14.4" fill="#e26f46" fill-rule="evenodd" fill-opacity="1" stroke="#000000" stroke-opacity="1" stroke-width="3.2"/>
<circle clip-path="url(#clip152)" cx="1787.41" cy="696.591" r="14.4" fill="#e26f46" fill-rule="evenodd" fill-opacity="1" stroke="#000000" stroke-opacity="1" stroke-width="3.2"/>
<circle clip-path="url(#clip152)" cx="1408.19" cy="726.043" r="14.4" fill="#e26f46" fill-rule="evenodd" fill-opacity="1" stroke="#000000" stroke-opacity="1" stroke-width="3.2"/>
<circle clip-path="url(#clip152)" cx="1471.14" cy="592.083" r="14.4" fill="#e26f46" fill-rule="evenodd" fill-opacity="1" stroke="#000000" stroke-opacity="1" stroke-width="3.2"/>
<circle clip-path="url(#clip152)" cx="1635.11" cy="816.969" r="14.4" fill="#e26f46" fill-rule="evenodd" fill-opacity="1" stroke="#000000" stroke-opacity="1" stroke-width="3.2"/>
<circle clip-path="url(#clip152)" cx="1697.76" cy="866.758" r="14.4" fill="#e26f46" fill-rule="evenodd" fill-opacity="1" stroke="#000000" stroke-opacity="1" stroke-width="3.2"/>
<circle clip-path="url(#clip152)" cx="1809.04" cy="783.509" r="14.4" fill="#e26f46" fill-rule="evenodd" fill-opacity="1" stroke="#000000" stroke-opacity="1" stroke-width="3.2"/>
<circle clip-path="url(#clip152)" cx="1780.58" cy="922.195" r="14.4" fill="#e26f46" fill-rule="evenodd" fill-opacity="1" stroke="#000000" stroke-opacity="1" stroke-width="3.2"/>
<circle clip-path="url(#clip152)" cx="1740.43" cy="978.475" r="14.4" fill="#e26f46" fill-rule="evenodd" fill-opacity="1" stroke="#000000" stroke-opacity="1" stroke-width="3.2"/>
<circle clip-path="url(#clip152)" cx="1861.01" cy="895.244" r="14.4" fill="#e26f46" fill-rule="evenodd" fill-opacity="1" stroke="#000000" stroke-opacity="1" stroke-width="3.2"/>
<circle clip-path="url(#clip152)" cx="301.869" cy="207.772" r="14.4" fill="#3da44d" fill-rule="evenodd" fill-opacity="1" stroke="#000000" stroke-opacity="1" stroke-width="3.2"/>
<circle clip-path="url(#clip152)" cx="367.139" cy="160.256" r="14.4" fill="#3da44d" fill-rule="evenodd" fill-opacity="1" stroke="#000000" stroke-opacity="1" stroke-width="3.2"/>
<circle clip-path="url(#clip152)" cx="324.722" cy="277.127" r="14.4" fill="#3da44d" fill-rule="evenodd" fill-opacity="1" stroke="#000000" stroke-opacity="1" stroke-width="3.2"/>
<circle clip-path="url(#clip152)" cx="393.016" cy="229.889" r="14.4" fill="#3da44d" fill-rule="evenodd" fill-opacity="1" stroke="#000000" stroke-opacity="1" stroke-width="3.2"/>
<circle clip-path="url(#clip152)" cx="459.274" cy="175.325" r="14.4" fill="#3da44d" fill-rule="evenodd" fill-opacity="1" stroke="#000000" stroke-opacity="1" stroke-width="3.2"/>
<circle clip-path="url(#clip152)" cx="543.866" cy="200.866" r="14.4" fill="#3da44d" fill-rule="evenodd" fill-opacity="1" stroke="#000000" stroke-opacity="1" stroke-width="3.2"/>
<circle clip-path="url(#clip152)" cx="474.293" cy="240.598" r="14.4" fill="#3da44d" fill-rule="evenodd" fill-opacity="1" stroke="#000000" stroke-opacity="1" stroke-width="3.2"/>
<circle clip-path="url(#clip152)" cx="362.096" cy="334.949" r="14.4" fill="#3da44d" fill-rule="evenodd" fill-opacity="1" stroke="#000000" stroke-opacity="1" stroke-width="3.2"/>
<circle clip-path="url(#clip152)" cx="420.435" cy="288.411" r="14.4" fill="#3da44d" fill-rule="evenodd" fill-opacity="1" stroke="#000000" stroke-opacity="1" stroke-width="3.2"/>
<circle clip-path="url(#clip152)" cx="595.687" cy="267.07" r="14.4" fill="#3da44d" fill-rule="evenodd" fill-opacity="1" stroke="#000000" stroke-opacity="1" stroke-width="3.2"/>
<circle clip-path="url(#clip152)" cx="474.128" cy="343.17" r="14.4" fill="#3da44d" fill-rule="evenodd" fill-opacity="1" stroke="#000000" stroke-opacity="1" stroke-width="3.2"/>
<circle clip-path="url(#clip152)" cx="574.152" cy="334.541" r="14.4" fill="#3da44d" fill-rule="evenodd" fill-opacity="1" stroke="#000000" stroke-opacity="1" stroke-width="3.2"/>
<circle clip-path="url(#clip152)" cx="476.295" cy="406.858" r="14.4" fill="#3da44d" fill-rule="evenodd" fill-opacity="1" stroke="#000000" stroke-opacity="1" stroke-width="3.2"/>
<circle clip-path="url(#clip152)" cx="393.047" cy="412.463" r="14.4" fill="#3da44d" fill-rule="evenodd" fill-opacity="1" stroke="#000000" stroke-opacity="1" stroke-width="3.2"/>
<circle clip-path="url(#clip152)" cx="451.512" cy="471.614" r="14.4" fill="#3da44d" fill-rule="evenodd" fill-opacity="1" stroke="#000000" stroke-opacity="1" stroke-width="3.2"/>
<circle clip-path="url(#clip152)" cx="519.081" cy="293.849" r="14.4" fill="#3da44d" fill-rule="evenodd" fill-opacity="1" stroke="#000000" stroke-opacity="1" stroke-width="3.2"/>
<circle clip-path="url(#clip152)" cx="552.298" cy="397.088" r="14.4" fill="#3da44d" fill-rule="evenodd" fill-opacity="1" stroke="#000000" stroke-opacity="1" stroke-width="3.2"/>
<circle clip-path="url(#clip152)" cx="539.413" cy="462.626" r="14.4" fill="#3da44d" fill-rule="evenodd" fill-opacity="1" stroke="#000000" stroke-opacity="1" stroke-width="3.2"/>
<circle clip-path="url(#clip152)" cx="640.359" cy="479.968" r="14.4" fill="#3da44d" fill-rule="evenodd" fill-opacity="1" stroke="#000000" stroke-opacity="1" stroke-width="3.2"/>
<circle clip-path="url(#clip152)" cx="639.607" cy="417.672" r="14.4" fill="#3da44d" fill-rule="evenodd" fill-opacity="1" stroke="#000000" stroke-opacity="1" stroke-width="3.2"/>
<circle clip-path="url(#clip152)" cx="749.798" cy="330.215" r="14.4" fill="#3da44d" fill-rule="evenodd" fill-opacity="1" stroke="#000000" stroke-opacity="1" stroke-width="3.2"/>
<circle clip-path="url(#clip152)" cx="700.558" cy="280.064" r="14.4" fill="#3da44d" fill-rule="evenodd" fill-opacity="1" stroke="#000000" stroke-opacity="1" stroke-width="3.2"/>
<circle clip-path="url(#clip152)" cx="733.359" cy="395.831" r="14.4" fill="#3da44d" fill-rule="evenodd" fill-opacity="1" stroke="#000000" stroke-opacity="1" stroke-width="3.2"/>
<circle clip-path="url(#clip152)" cx="669.59" cy="345.364" r="14.4" fill="#3da44d" fill-rule="evenodd" fill-opacity="1" stroke="#000000" stroke-opacity="1" stroke-width="3.2"/>
<circle clip-path="url(#clip152)" cx="2095.17" cy="1175.78" r="14.4" fill="#c271d2" fill-rule="evenodd" fill-opacity="1" stroke="#000000" stroke-opacity="1" stroke-width="3.2"/>
<circle clip-path="url(#clip152)" cx="2050.17" cy="1220.12" r="14.4" fill="#c271d2" fill-rule="evenodd" fill-opacity="1" stroke="#000000" stroke-opacity="1" stroke-width="3.2"/>
<circle clip-path="url(#clip152)" cx="2169.15" cy="1146.81" r="14.4" fill="#c271d2" fill-rule="evenodd" fill-opacity="1" stroke="#000000" stroke-opacity="1" stroke-width="3.2"/>
<circle clip-path="url(#clip152)" cx="1974.08" cy="1244.42" r="14.4" fill="#c271d2" fill-rule="evenodd" fill-opacity="1" stroke="#000000" stroke-opacity="1" stroke-width="3.2"/>
<circle clip-path="url(#clip152)" cx="2040.62" cy="1290.84" r="14.4" fill="#c271d2" fill-rule="evenodd" fill-opacity="1" stroke="#000000" stroke-opacity="1" stroke-width="3.2"/>
<circle clip-path="url(#clip152)" cx="2159.64" cy="1217.83" r="14.4" fill="#c271d2" fill-rule="evenodd" fill-opacity="1" stroke="#000000" stroke-opacity="1" stroke-width="3.2"/>
<circle clip-path="url(#clip152)" cx="2121.32" cy="1272.56" r="14.4" fill="#c271d2" fill-rule="evenodd" fill-opacity="1" stroke="#000000" stroke-opacity="1" stroke-width="3.2"/>
<circle clip-path="url(#clip152)" cx="2246.02" cy="1345.56" r="14.4" fill="#c271d2" fill-rule="evenodd" fill-opacity="1" stroke="#000000" stroke-opacity="1" stroke-width="3.2"/>
<circle clip-path="url(#clip152)" cx="2293.02" cy="1289.5" r="14.4" fill="#c271d2" fill-rule="evenodd" fill-opacity="1" stroke="#000000" stroke-opacity="1" stroke-width="3.2"/>
<circle clip-path="url(#clip152)" cx="2209.37" cy="1278.08" r="14.4" fill="#c271d2" fill-rule="evenodd" fill-opacity="1" stroke="#000000" stroke-opacity="1" stroke-width="3.2"/>
<circle clip-path="url(#clip152)" cx="2257.48" cy="1224.1" r="14.4" fill="#c271d2" fill-rule="evenodd" fill-opacity="1" stroke="#000000" stroke-opacity="1" stroke-width="3.2"/>
<circle clip-path="url(#clip152)" cx="2171.57" cy="1386.4" r="14.4" fill="#c271d2" fill-rule="evenodd" fill-opacity="1" stroke="#000000" stroke-opacity="1" stroke-width="3.2"/>
<circle clip-path="url(#clip152)" cx="2161.95" cy="1324.64" r="14.4" fill="#c271d2" fill-rule="evenodd" fill-opacity="1" stroke="#000000" stroke-opacity="1" stroke-width="3.2"/>
<circle clip-path="url(#clip152)" cx="2085.88" cy="1354.09" r="14.4" fill="#c271d2" fill-rule="evenodd" fill-opacity="1" stroke="#000000" stroke-opacity="1" stroke-width="3.2"/>
<path clip-path="url(#clip152)" d="M2121.32 1304.56 L2098.69 1295.19 L2089.32 1272.56 L2098.69 1249.94 L2121.32 1240.56 L2143.94 1249.94 L2153.32 1272.56 L2143.94 1295.19 Z" fill="#ffa500" fill-rule="evenodd" fill-opacity="1" stroke="#000000" stroke-opacity="1" stroke-width="3.2"/>
<path clip-path="url(#clip152)" d="M2246.02 1313.56 L2214.02 1377.56 L2278.02 1377.56 L2246.02 1313.56 Z" fill="#ffa500" fill-rule="evenodd" fill-opacity="1" stroke="#000000" stroke-opacity="1" stroke-width="3.2"/>
<path clip-path="url(#clip152)" d="M2040.62 1258.84 L2033.1 1280.48 L2010.19 1280.96 L2028.46 1294.81 L2021.8 1316.73 L2040.62 1303.64 L2059.44 1316.73 L2052.78 1294.81 L2071.05 1280.96 L2048.14 1280.48 L2040.62 1258.84 Z" fill="#ffa500" fill-rule="evenodd" fill-opacity="1" stroke="#000000" stroke-opacity="1" stroke-width="3.2"/>
<path clip-path="url(#clip152)" d="M324.722 245.127 L292.722 277.127 L324.722 309.127 L356.722 277.127 L324.722 245.127 Z" fill="#ffa500" fill-rule="evenodd" fill-opacity="1" stroke="#000000" stroke-opacity="1" stroke-width="3.2"/>
<path clip-path="url(#clip152)" d="M563.687 235.07 L563.687 299.07 L627.687 299.07 L627.687 235.07 L563.687 235.07 Z" fill="#ffa500" fill-rule="evenodd" fill-opacity="1" stroke="#000000" stroke-opacity="1" stroke-width="3.2"/>
<path clip-path="url(#clip152)" d="M1718.64 607.509 L1713.74 587.349 L1696.02 598.133 L1706.8 580.405 L1686.64 575.509 L1706.8 570.613 L1696.02 552.885 L1713.74 563.669 L1718.64 543.509 L1723.54 563.669 L1741.26 552.885 L1730.48 570.613 L1750.64 575.509 L1730.48 580.405 L1741.26 598.133 L1723.54 587.349 L1718.64 607.509 Z" fill="#ffa500" fill-rule="evenodd" fill-opacity="1" stroke="#000000" stroke-opacity="1" stroke-width="3.2"/>
<path clip-path="url(#clip152)" d="M2095.17 1207.78 L2067.46 1191.78 L2067.46 1159.78 L2095.17 1143.78 L2122.88 1159.78 L2122.88 1191.78 Z" fill="#ffa500" fill-rule="evenodd" fill-opacity="1" stroke="#000000" stroke-opacity="1" stroke-width="3.2"/>
<path clip-path="url(#clip152)" d="M1930.64 1081.77 L1900.21 1103.88 L1911.82 1139.66 L1949.45 1139.66 L1961.07 1103.88 Z" fill="#ffa500" fill-rule="evenodd" fill-opacity="1" stroke="#000000" stroke-opacity="1" stroke-width="3.2"/>
<path clip-path="url(#clip152)" d="M1917.83 1075.05 L1908.77 1052.11 L1885.83 1043.05 L1908.77 1034 L1917.83 1011.05 L1926.88 1034 L1949.83 1043.05 L1926.88 1052.11 L1917.83 1075.05 Z" fill="#ffa500" fill-rule="evenodd" fill-opacity="1" stroke="#000000" stroke-opacity="1" stroke-width="3.2"/>
<path clip-path="url(#clip152)" d="M1812.58 890.195 L1748.58 890.195 L1780.58 954.195 L1812.58 890.195 Z" fill="#ffa500" fill-rule="evenodd" fill-opacity="1" stroke="#000000" stroke-opacity="1" stroke-width="3.2"/>
<path clip-path="url(#clip152)" d="M2121.32 1312.56 L2093.04 1300.84 L2081.32 1272.56 L2093.04 1244.28 L2121.32 1232.56 L2149.6 1244.28 L2161.32 1272.56 L2149.6 1300.84 Z" fill="#ff0000" fill-rule="evenodd" fill-opacity="1" stroke="#000000" stroke-opacity="1" stroke-width="3.2"/>
<path clip-path="url(#clip152)" d="M1820.58 882.195 L1740.58 882.195 L1780.58 962.195 L1820.58 882.195 Z" fill="#ff0000" fill-rule="evenodd" fill-opacity="1" stroke="#000000" stroke-opacity="1" stroke-width="3.2"/>
<path clip-path="url(#clip150)" d="M1664.35 529.676 L2282.4 529.676 L2282.4 166.796 L1664.35 166.796  Z" fill="#ffffff" fill-rule="evenodd" fill-opacity="1"/>
<polyline clip-path="url(#clip150)" style="stroke:#000000; stroke-linecap:round; stroke-linejoin:round; stroke-width:4; stroke-opacity:1; fill:none" points="1664.35,529.676 2282.4,529.676 2282.4,166.796 1664.35,166.796 1664.35,529.676 "/>
<circle clip-path="url(#clip150)" cx="1758.16" cy="218.636" r="20.48" fill="#009af9" fill-rule="evenodd" fill-opacity="1" stroke="#000000" stroke-opacity="1" stroke-width="4.55111"/>
<path clip-path="url(#clip150)" d="M1877.52 230.985 L1877.52 221.703 L1869.88 221.703 L1869.88 217.86 L1882.15 217.86 L1882.15 232.698 Q1879.44 234.619 1876.17 235.615 Q1872.91 236.587 1869.21 236.587 Q1861.11 236.587 1856.52 231.865 Q1851.96 227.119 1851.96 218.67 Q1851.96 210.198 1856.52 205.476 Q1861.11 200.731 1869.21 200.731 Q1872.59 200.731 1875.62 201.564 Q1878.67 202.397 1881.24 204.018 L1881.24 208.995 Q1878.65 206.796 1875.73 205.684 Q1872.82 204.573 1869.6 204.573 Q1863.26 204.573 1860.06 208.115 Q1856.89 211.657 1856.89 218.67 Q1856.89 225.661 1860.06 229.203 Q1863.26 232.744 1869.6 232.744 Q1872.08 232.744 1874.02 232.328 Q1875.97 231.888 1877.52 230.985 Z" fill="#000000" fill-rule="nonzero" fill-opacity="1" /><path clip-path="url(#clip150)" d="M1905.53 213.971 Q1904.81 213.555 1903.95 213.37 Q1903.12 213.161 1902.1 213.161 Q1898.49 213.161 1896.55 215.522 Q1894.62 217.86 1894.62 222.258 L1894.62 235.916 L1890.34 235.916 L1890.34 209.99 L1894.62 209.99 L1894.62 214.018 Q1895.97 211.657 1898.12 210.522 Q1900.27 209.365 1903.35 209.365 Q1903.79 209.365 1904.32 209.434 Q1904.86 209.481 1905.5 209.596 L1905.53 213.971 Z" fill="#000000" fill-rule="nonzero" fill-opacity="1" /><path clip-path="url(#clip150)" d="M1909.55 225.684 L1909.55 209.99 L1913.81 209.99 L1913.81 225.522 Q1913.81 229.203 1915.25 231.055 Q1916.68 232.883 1919.55 232.883 Q1923 232.883 1924.99 230.684 Q1927.01 228.485 1927.01 224.689 L1927.01 209.99 L1931.27 209.99 L1931.27 235.916 L1927.01 235.916 L1927.01 231.934 Q1925.46 234.295 1923.4 235.453 Q1921.36 236.587 1918.65 236.587 Q1914.18 236.587 1911.87 233.809 Q1909.55 231.031 1909.55 225.684 M1920.27 209.365 L1920.27 209.365 Z" fill="#000000" fill-rule="nonzero" fill-opacity="1" /><path clip-path="url(#clip150)" d="M1944.16 232.027 L1944.16 245.777 L1939.88 245.777 L1939.88 209.99 L1944.16 209.99 L1944.16 213.925 Q1945.5 211.61 1947.54 210.499 Q1949.6 209.365 1952.45 209.365 Q1957.17 209.365 1960.11 213.115 Q1963.07 216.865 1963.07 222.976 Q1963.07 229.087 1960.11 232.837 Q1957.17 236.587 1952.45 236.587 Q1949.6 236.587 1947.54 235.476 Q1945.5 234.342 1944.16 232.027 M1958.65 222.976 Q1958.65 218.277 1956.71 215.615 Q1954.79 212.93 1951.41 212.93 Q1948.03 212.93 1946.08 215.615 Q1944.16 218.277 1944.16 222.976 Q1944.16 227.675 1946.08 230.36 Q1948.03 233.022 1951.41 233.022 Q1954.79 233.022 1956.71 230.36 Q1958.65 227.675 1958.65 222.976 Z" fill="#000000" fill-rule="nonzero" fill-opacity="1" /><path clip-path="url(#clip150)" d="M1980.18 212.976 Q1976.75 212.976 1974.76 215.661 Q1972.77 218.323 1972.77 222.976 Q1972.77 227.629 1974.74 230.314 Q1976.73 232.976 1980.18 232.976 Q1983.58 232.976 1985.57 230.291 Q1987.56 227.606 1987.56 222.976 Q1987.56 218.37 1985.57 215.684 Q1983.58 212.976 1980.18 212.976 M1980.18 209.365 Q1985.73 209.365 1988.91 212.976 Q1992.08 216.587 1992.08 222.976 Q1992.08 229.342 1988.91 232.976 Q1985.73 236.587 1980.18 236.587 Q1974.6 236.587 1971.43 232.976 Q1968.28 229.342 1968.28 222.976 Q1968.28 216.587 1971.43 212.976 Q1974.6 209.365 1980.18 209.365 Z" fill="#000000" fill-rule="nonzero" fill-opacity="1" /><path clip-path="url(#clip150)" d="M2015.62 231.981 L2023.26 231.981 L2023.26 205.615 L2014.95 207.282 L2014.95 203.022 L2023.21 201.356 L2027.89 201.356 L2027.89 231.981 L2035.53 231.981 L2035.53 235.916 L2015.62 235.916 L2015.62 231.981 Z" fill="#000000" fill-rule="nonzero" fill-opacity="1" /><circle clip-path="url(#clip150)" cx="1758.16" cy="270.476" r="20.48" fill="#e26f46" fill-rule="evenodd" fill-opacity="1" stroke="#000000" stroke-opacity="1" stroke-width="4.55111"/>
<path clip-path="url(#clip150)" d="M1877.52 282.825 L1877.52 273.543 L1869.88 273.543 L1869.88 269.7 L1882.15 269.7 L1882.15 284.538 Q1879.44 286.459 1876.17 287.455 Q1872.91 288.427 1869.21 288.427 Q1861.11 288.427 1856.52 283.705 Q1851.96 278.959 1851.96 270.51 Q1851.96 262.038 1856.52 257.316 Q1861.11 252.571 1869.21 252.571 Q1872.59 252.571 1875.62 253.404 Q1878.67 254.237 1881.24 255.858 L1881.24 260.835 Q1878.65 258.636 1875.73 257.524 Q1872.82 256.413 1869.6 256.413 Q1863.26 256.413 1860.06 259.955 Q1856.89 263.497 1856.89 270.51 Q1856.89 277.501 1860.06 281.043 Q1863.26 284.584 1869.6 284.584 Q1872.08 284.584 1874.02 284.168 Q1875.97 283.728 1877.52 282.825 Z" fill="#000000" fill-rule="nonzero" fill-opacity="1" /><path clip-path="url(#clip150)" d="M1905.53 265.811 Q1904.81 265.395 1903.95 265.21 Q1903.12 265.001 1902.1 265.001 Q1898.49 265.001 1896.55 267.362 Q1894.62 269.7 1894.62 274.098 L1894.62 287.756 L1890.34 287.756 L1890.34 261.83 L1894.62 261.83 L1894.62 265.858 Q1895.97 263.497 1898.12 262.362 Q1900.27 261.205 1903.35 261.205 Q1903.79 261.205 1904.32 261.274 Q1904.86 261.321 1905.5 261.436 L1905.53 265.811 Z" fill="#000000" fill-rule="nonzero" fill-opacity="1" /><path clip-path="url(#clip150)" d="M1909.55 277.524 L1909.55 261.83 L1913.81 261.83 L1913.81 277.362 Q1913.81 281.043 1915.25 282.895 Q1916.68 284.723 1919.55 284.723 Q1923 284.723 1924.99 282.524 Q1927.01 280.325 1927.01 276.529 L1927.01 261.83 L1931.27 261.83 L1931.27 287.756 L1927.01 287.756 L1927.01 283.774 Q1925.46 286.135 1923.4 287.293 Q1921.36 288.427 1918.65 288.427 Q1914.18 288.427 1911.87 285.649 Q1909.55 282.871 1909.55 277.524 M1920.27 261.205 L1920.27 261.205 Z" fill="#000000" fill-rule="nonzero" fill-opacity="1" /><path clip-path="url(#clip150)" d="M1944.16 283.867 L1944.16 297.617 L1939.88 297.617 L1939.88 261.83 L1944.16 261.83 L1944.16 265.765 Q1945.5 263.45 1947.54 262.339 Q1949.6 261.205 1952.45 261.205 Q1957.17 261.205 1960.11 264.955 Q1963.07 268.705 1963.07 274.816 Q1963.07 280.927 1960.11 284.677 Q1957.17 288.427 1952.45 288.427 Q1949.6 288.427 1947.54 287.316 Q1945.5 286.182 1944.16 283.867 M1958.65 274.816 Q1958.65 270.117 1956.71 267.455 Q1954.79 264.77 1951.41 264.77 Q1948.03 264.77 1946.08 267.455 Q1944.16 270.117 1944.16 274.816 Q1944.16 279.515 1946.08 282.2 Q1948.03 284.862 1951.41 284.862 Q1954.79 284.862 1956.71 282.2 Q1958.65 279.515 1958.65 274.816 Z" fill="#000000" fill-rule="nonzero" fill-opacity="1" /><path clip-path="url(#clip150)" d="M1980.18 264.816 Q1976.75 264.816 1974.76 267.501 Q1972.77 270.163 1972.77 274.816 Q1972.77 279.469 1974.74 282.154 Q1976.73 284.816 1980.18 284.816 Q1983.58 284.816 1985.57 282.131 Q1987.56 279.446 1987.56 274.816 Q1987.56 270.21 1985.57 267.524 Q1983.58 264.816 1980.18 264.816 M1980.18 261.205 Q1985.73 261.205 1988.91 264.816 Q1992.08 268.427 1992.08 274.816 Q1992.08 281.182 1988.91 284.816 Q1985.73 288.427 1980.18 288.427 Q1974.6 288.427 1971.43 284.816 Q1968.28 281.182 1968.28 274.816 Q1968.28 268.427 1971.43 264.816 Q1974.6 261.205 1980.18 261.205 Z" fill="#000000" fill-rule="nonzero" fill-opacity="1" /><path clip-path="url(#clip150)" d="M2018.84 283.821 L2035.16 283.821 L2035.16 287.756 L2013.21 287.756 L2013.21 283.821 Q2015.87 281.066 2020.46 276.436 Q2025.06 271.784 2026.24 270.441 Q2028.49 267.918 2029.37 266.182 Q2030.27 264.423 2030.27 262.733 Q2030.27 259.978 2028.33 258.242 Q2026.41 256.506 2023.3 256.506 Q2021.1 256.506 2018.65 257.27 Q2016.22 258.034 2013.44 259.585 L2013.44 254.862 Q2016.27 253.728 2018.72 253.149 Q2021.17 252.571 2023.21 252.571 Q2028.58 252.571 2031.78 255.256 Q2034.97 257.941 2034.97 262.432 Q2034.97 264.561 2034.16 266.483 Q2033.37 268.381 2031.27 270.973 Q2030.69 271.645 2027.59 274.862 Q2024.48 278.057 2018.84 283.821 Z" fill="#000000" fill-rule="nonzero" fill-opacity="1" /><circle clip-path="url(#clip150)" cx="1758.16" cy="322.316" r="20.48" fill="#3da44d" fill-rule="evenodd" fill-opacity="1" stroke="#000000" stroke-opacity="1" stroke-width="4.55111"/>
<path clip-path="url(#clip150)" d="M1877.52 334.665 L1877.52 325.383 L1869.88 325.383 L1869.88 321.54 L1882.15 321.54 L1882.15 336.378 Q1879.44 338.299 1876.17 339.295 Q1872.91 340.267 1869.21 340.267 Q1861.11 340.267 1856.52 335.545 Q1851.96 330.799 1851.96 322.35 Q1851.96 313.878 1856.52 309.156 Q1861.11 304.411 1869.21 304.411 Q1872.59 304.411 1875.62 305.244 Q1878.67 306.077 1881.24 307.698 L1881.24 312.675 Q1878.65 310.476 1875.73 309.364 Q1872.82 308.253 1869.6 308.253 Q1863.26 308.253 1860.06 311.795 Q1856.89 315.337 1856.89 322.35 Q1856.89 329.341 1860.06 332.883 Q1863.26 336.424 1869.6 336.424 Q1872.08 336.424 1874.02 336.008 Q1875.97 335.568 1877.52 334.665 Z" fill="#000000" fill-rule="nonzero" fill-opacity="1" /><path clip-path="url(#clip150)" d="M1905.53 317.651 Q1904.81 317.235 1903.95 317.05 Q1903.12 316.841 1902.1 316.841 Q1898.49 316.841 1896.55 319.202 Q1894.62 321.54 1894.62 325.938 L1894.62 339.596 L1890.34 339.596 L1890.34 313.67 L1894.62 313.67 L1894.62 317.698 Q1895.97 315.337 1898.12 314.202 Q1900.27 313.045 1903.35 313.045 Q1903.79 313.045 1904.32 313.114 Q1904.86 313.161 1905.5 313.276 L1905.53 317.651 Z" fill="#000000" fill-rule="nonzero" fill-opacity="1" /><path clip-path="url(#clip150)" d="M1909.55 329.364 L1909.55 313.67 L1913.81 313.67 L1913.81 329.202 Q1913.81 332.883 1915.25 334.735 Q1916.68 336.563 1919.55 336.563 Q1923 336.563 1924.99 334.364 Q1927.01 332.165 1927.01 328.369 L1927.01 313.67 L1931.27 313.67 L1931.27 339.596 L1927.01 339.596 L1927.01 335.614 Q1925.46 337.975 1923.4 339.133 Q1921.36 340.267 1918.65 340.267 Q1914.18 340.267 1911.87 337.489 Q1909.55 334.711 1909.55 329.364 M1920.27 313.045 L1920.27 313.045 Z" fill="#000000" fill-rule="nonzero" fill-opacity="1" /><path clip-path="url(#clip150)" d="M1944.16 335.707 L1944.16 349.457 L1939.88 349.457 L1939.88 313.67 L1944.16 313.67 L1944.16 317.605 Q1945.5 315.29 1947.54 314.179 Q1949.6 313.045 1952.45 313.045 Q1957.17 313.045 1960.11 316.795 Q1963.07 320.545 1963.07 326.656 Q1963.07 332.767 1960.11 336.517 Q1957.17 340.267 1952.45 340.267 Q1949.6 340.267 1947.54 339.156 Q1945.5 338.022 1944.16 335.707 M1958.65 326.656 Q1958.65 321.957 1956.71 319.295 Q1954.79 316.61 1951.41 316.61 Q1948.03 316.61 1946.08 319.295 Q1944.16 321.957 1944.16 326.656 Q1944.16 331.355 1946.08 334.04 Q1948.03 336.702 1951.41 336.702 Q1954.79 336.702 1956.71 334.04 Q1958.65 331.355 1958.65 326.656 Z" fill="#000000" fill-rule="nonzero" fill-opacity="1" /><path clip-path="url(#clip150)" d="M1980.18 316.656 Q1976.75 316.656 1974.76 319.341 Q1972.77 322.003 1972.77 326.656 Q1972.77 331.309 1974.74 333.994 Q1976.73 336.656 1980.18 336.656 Q1983.58 336.656 1985.57 333.971 Q1987.56 331.286 1987.56 326.656 Q1987.56 322.05 1985.57 319.364 Q1983.58 316.656 1980.18 316.656 M1980.18 313.045 Q1985.73 313.045 1988.91 316.656 Q1992.08 320.267 1992.08 326.656 Q1992.08 333.022 1988.91 336.656 Q1985.73 340.267 1980.18 340.267 Q1974.6 340.267 1971.43 336.656 Q1968.28 333.022 1968.28 326.656 Q1968.28 320.267 1971.43 316.656 Q1974.6 313.045 1980.18 313.045 Z" fill="#000000" fill-rule="nonzero" fill-opacity="1" /><path clip-path="url(#clip150)" d="M2028.97 320.962 Q2032.33 321.679 2034.21 323.948 Q2036.1 326.216 2036.1 329.549 Q2036.1 334.665 2032.59 337.466 Q2029.07 340.267 2022.59 340.267 Q2020.41 340.267 2018.1 339.827 Q2015.8 339.411 2013.35 338.554 L2013.35 334.04 Q2015.29 335.174 2017.61 335.753 Q2019.92 336.332 2022.45 336.332 Q2026.85 336.332 2029.14 334.596 Q2031.45 332.86 2031.45 329.549 Q2031.45 326.494 2029.3 324.781 Q2027.17 323.045 2023.35 323.045 L2019.32 323.045 L2019.32 319.202 L2023.54 319.202 Q2026.98 319.202 2028.81 317.837 Q2030.64 316.448 2030.64 313.855 Q2030.64 311.193 2028.74 309.781 Q2026.87 308.346 2023.35 308.346 Q2021.43 308.346 2019.23 308.763 Q2017.03 309.179 2014.39 310.059 L2014.39 305.892 Q2017.05 305.151 2019.37 304.781 Q2021.71 304.411 2023.77 304.411 Q2029.09 304.411 2032.19 306.841 Q2035.29 309.249 2035.29 313.369 Q2035.29 316.239 2033.65 318.23 Q2032.01 320.198 2028.97 320.962 Z" fill="#000000" fill-rule="nonzero" fill-opacity="1" /><circle clip-path="url(#clip150)" cx="1758.16" cy="374.156" r="20.48" fill="#c271d2" fill-rule="evenodd" fill-opacity="1" stroke="#000000" stroke-opacity="1" stroke-width="4.55111"/>
<path clip-path="url(#clip150)" d="M1877.52 386.505 L1877.52 377.223 L1869.88 377.223 L1869.88 373.38 L1882.15 373.38 L1882.15 388.218 Q1879.44 390.139 1876.17 391.135 Q1872.91 392.107 1869.21 392.107 Q1861.11 392.107 1856.52 387.385 Q1851.96 382.639 1851.96 374.19 Q1851.96 365.718 1856.52 360.996 Q1861.11 356.251 1869.21 356.251 Q1872.59 356.251 1875.62 357.084 Q1878.67 357.917 1881.24 359.538 L1881.24 364.515 Q1878.65 362.316 1875.73 361.204 Q1872.82 360.093 1869.6 360.093 Q1863.26 360.093 1860.06 363.635 Q1856.89 367.177 1856.89 374.19 Q1856.89 381.181 1860.06 384.723 Q1863.26 388.264 1869.6 388.264 Q1872.08 388.264 1874.02 387.848 Q1875.97 387.408 1877.52 386.505 Z" fill="#000000" fill-rule="nonzero" fill-opacity="1" /><path clip-path="url(#clip150)" d="M1905.53 369.491 Q1904.81 369.075 1903.95 368.89 Q1903.12 368.681 1902.1 368.681 Q1898.49 368.681 1896.55 371.042 Q1894.62 373.38 1894.62 377.778 L1894.62 391.436 L1890.34 391.436 L1890.34 365.51 L1894.62 365.51 L1894.62 369.538 Q1895.97 367.177 1898.12 366.042 Q1900.27 364.885 1903.35 364.885 Q1903.79 364.885 1904.32 364.954 Q1904.86 365.001 1905.5 365.116 L1905.53 369.491 Z" fill="#000000" fill-rule="nonzero" fill-opacity="1" /><path clip-path="url(#clip150)" d="M1909.55 381.204 L1909.55 365.51 L1913.81 365.51 L1913.81 381.042 Q1913.81 384.723 1915.25 386.575 Q1916.68 388.403 1919.55 388.403 Q1923 388.403 1924.99 386.204 Q1927.01 384.005 1927.01 380.209 L1927.01 365.51 L1931.27 365.51 L1931.27 391.436 L1927.01 391.436 L1927.01 387.454 Q1925.46 389.815 1923.4 390.973 Q1921.36 392.107 1918.65 392.107 Q1914.18 392.107 1911.87 389.329 Q1909.55 386.551 1909.55 381.204 M1920.27 364.885 L1920.27 364.885 Z" fill="#000000" fill-rule="nonzero" fill-opacity="1" /><path clip-path="url(#clip150)" d="M1944.16 387.547 L1944.16 401.297 L1939.88 401.297 L1939.88 365.51 L1944.16 365.51 L1944.16 369.445 Q1945.5 367.13 1947.54 366.019 Q1949.6 364.885 1952.45 364.885 Q1957.17 364.885 1960.11 368.635 Q1963.07 372.385 1963.07 378.496 Q1963.07 384.607 1960.11 388.357 Q1957.17 392.107 1952.45 392.107 Q1949.6 392.107 1947.54 390.996 Q1945.5 389.862 1944.16 387.547 M1958.65 378.496 Q1958.65 373.797 1956.71 371.135 Q1954.79 368.45 1951.41 368.45 Q1948.03 368.45 1946.08 371.135 Q1944.16 373.797 1944.16 378.496 Q1944.16 383.195 1946.08 385.88 Q1948.03 388.542 1951.41 388.542 Q1954.79 388.542 1956.71 385.88 Q1958.65 383.195 1958.65 378.496 Z" fill="#000000" fill-rule="nonzero" fill-opacity="1" /><path clip-path="url(#clip150)" d="M1980.18 368.496 Q1976.75 368.496 1974.76 371.181 Q1972.77 373.843 1972.77 378.496 Q1972.77 383.149 1974.74 385.834 Q1976.73 388.496 1980.18 388.496 Q1983.58 388.496 1985.57 385.811 Q1987.56 383.126 1987.56 378.496 Q1987.56 373.89 1985.57 371.204 Q1983.58 368.496 1980.18 368.496 M1980.18 364.885 Q1985.73 364.885 1988.91 368.496 Q1992.08 372.107 1992.08 378.496 Q1992.08 384.862 1988.91 388.496 Q1985.73 392.107 1980.18 392.107 Q1974.6 392.107 1971.43 388.496 Q1968.28 384.862 1968.28 378.496 Q1968.28 372.107 1971.43 368.496 Q1974.6 364.885 1980.18 364.885 Z" fill="#000000" fill-rule="nonzero" fill-opacity="1" /><path clip-path="url(#clip150)" d="M2027.66 360.95 L2015.85 379.399 L2027.66 379.399 L2027.66 360.95 M2026.43 356.876 L2032.31 356.876 L2032.31 379.399 L2037.24 379.399 L2037.24 383.288 L2032.31 383.288 L2032.31 391.436 L2027.66 391.436 L2027.66 383.288 L2012.05 383.288 L2012.05 378.774 L2026.43 356.876 Z" fill="#000000" fill-rule="nonzero" fill-opacity="1" /><circle clip-path="url(#clip150)" cx="1758.16" cy="425.996" r="21.9429" fill="#ff0000" fill-rule="evenodd" fill-opacity="1" stroke="#000000" stroke-opacity="1" stroke-width="1.95048"/>
<path clip-path="url(#clip150)" d="M1868.35 427.072 Q1869.86 427.581 1871.27 429.248 Q1872.7 430.915 1874.14 433.831 L1878.88 443.276 L1873.86 443.276 L1869.44 434.41 Q1867.73 430.938 1866.11 429.804 Q1864.51 428.669 1861.73 428.669 L1856.64 428.669 L1856.64 443.276 L1851.96 443.276 L1851.96 408.716 L1862.52 408.716 Q1868.44 408.716 1871.36 411.193 Q1874.28 413.669 1874.28 418.669 Q1874.28 421.933 1872.75 424.086 Q1871.24 426.239 1868.35 427.072 M1856.64 412.558 L1856.64 424.827 L1862.52 424.827 Q1865.9 424.827 1867.61 423.276 Q1869.35 421.702 1869.35 418.669 Q1869.35 415.637 1867.61 414.109 Q1865.9 412.558 1862.52 412.558 L1856.64 412.558 Z" fill="#000000" fill-rule="nonzero" fill-opacity="1" /><path clip-path="url(#clip150)" d="M1904.76 429.248 L1904.76 431.331 L1885.18 431.331 Q1885.46 435.729 1887.82 438.044 Q1890.2 440.336 1894.44 440.336 Q1896.89 440.336 1899.18 439.734 Q1901.5 439.132 1903.77 437.929 L1903.77 441.956 Q1901.48 442.928 1899.07 443.438 Q1896.66 443.947 1894.18 443.947 Q1887.98 443.947 1884.35 440.336 Q1880.73 436.725 1880.73 430.567 Q1880.73 424.202 1884.16 420.475 Q1887.61 416.725 1893.44 416.725 Q1898.67 416.725 1901.71 420.105 Q1904.76 423.461 1904.76 429.248 M1900.5 427.998 Q1900.46 424.503 1898.54 422.419 Q1896.64 420.336 1893.49 420.336 Q1889.92 420.336 1887.77 422.35 Q1885.64 424.364 1885.32 428.021 L1900.5 427.998 Z" fill="#000000" fill-rule="nonzero" fill-opacity="1" /><path clip-path="url(#clip150)" d="M1928.81 421.285 L1928.81 407.257 L1933.07 407.257 L1933.07 443.276 L1928.81 443.276 L1928.81 439.387 Q1927.47 441.702 1925.41 442.836 Q1923.37 443.947 1920.5 443.947 Q1915.8 443.947 1912.84 440.197 Q1909.9 436.447 1909.9 430.336 Q1909.9 424.225 1912.84 420.475 Q1915.8 416.725 1920.5 416.725 Q1923.37 416.725 1925.41 417.859 Q1927.47 418.97 1928.81 421.285 M1914.3 430.336 Q1914.3 435.035 1916.22 437.72 Q1918.17 440.382 1921.54 440.382 Q1924.92 440.382 1926.87 437.72 Q1928.81 435.035 1928.81 430.336 Q1928.81 425.637 1926.87 422.975 Q1924.92 420.29 1921.54 420.29 Q1918.17 420.29 1916.22 422.975 Q1914.3 425.637 1914.3 430.336 Z" fill="#000000" fill-rule="nonzero" fill-opacity="1" /><path clip-path="url(#clip150)" d="M1979.09 429.248 L1979.09 431.331 L1959.51 431.331 Q1959.79 435.729 1962.15 438.044 Q1964.53 440.336 1968.77 440.336 Q1971.22 440.336 1973.51 439.734 Q1975.83 439.132 1978.1 437.929 L1978.1 441.956 Q1975.8 442.928 1973.4 443.438 Q1970.99 443.947 1968.51 443.947 Q1962.31 443.947 1958.67 440.336 Q1955.06 436.725 1955.06 430.567 Q1955.06 424.202 1958.49 420.475 Q1961.94 416.725 1967.77 416.725 Q1973 416.725 1976.04 420.105 Q1979.09 423.461 1979.09 429.248 M1974.83 427.998 Q1974.79 424.503 1972.86 422.419 Q1970.97 420.336 1967.82 420.336 Q1964.25 420.336 1962.1 422.35 Q1959.97 424.364 1959.65 428.021 L1974.83 427.998 Z" fill="#000000" fill-rule="nonzero" fill-opacity="1" /><path clip-path="url(#clip150)" d="M2006.8 417.35 L1997.42 429.966 L2007.29 443.276 L2002.26 443.276 L1994.72 433.091 L1987.17 443.276 L1982.15 443.276 L1992.22 429.711 L1983 417.35 L1988.03 417.35 L1994.9 426.586 L2001.78 417.35 L2006.8 417.35 Z" fill="#000000" fill-rule="nonzero" fill-opacity="1" /><path clip-path="url(#clip150)" d="M2017.52 409.989 L2017.52 417.35 L2026.29 417.35 L2026.29 420.66 L2017.52 420.66 L2017.52 434.734 Q2017.52 437.905 2018.37 438.808 Q2019.25 439.711 2021.91 439.711 L2026.29 439.711 L2026.29 443.276 L2021.91 443.276 Q2016.98 443.276 2015.11 441.447 Q2013.23 439.595 2013.23 434.734 L2013.23 420.66 L2010.11 420.66 L2010.11 417.35 L2013.23 417.35 L2013.23 409.989 L2017.52 409.989 Z" fill="#000000" fill-rule="nonzero" fill-opacity="1" /><path clip-path="url(#clip150)" d="M2046.91 421.331 Q2046.2 420.915 2045.34 420.73 Q2044.51 420.521 2043.49 420.521 Q2039.88 420.521 2037.93 422.882 Q2036.01 425.22 2036.01 429.618 L2036.01 443.276 L2031.73 443.276 L2031.73 417.35 L2036.01 417.35 L2036.01 421.378 Q2037.35 419.017 2039.51 417.882 Q2041.66 416.725 2044.74 416.725 Q2045.18 416.725 2045.71 416.794 Q2046.24 416.841 2046.89 416.956 L2046.91 421.331 Z" fill="#000000" fill-rule="nonzero" fill-opacity="1" /><path clip-path="url(#clip150)" d="M2072.52 429.248 L2072.52 431.331 L2052.93 431.331 Q2053.21 435.729 2055.57 438.044 Q2057.96 440.336 2062.19 440.336 Q2064.65 440.336 2066.94 439.734 Q2069.25 439.132 2071.52 437.929 L2071.52 441.956 Q2069.23 442.928 2066.82 443.438 Q2064.41 443.947 2061.94 443.947 Q2055.73 443.947 2052.1 440.336 Q2048.49 436.725 2048.49 430.567 Q2048.49 424.202 2051.91 420.475 Q2055.36 416.725 2061.2 416.725 Q2066.43 416.725 2069.46 420.105 Q2072.52 423.461 2072.52 429.248 M2068.26 427.998 Q2068.21 424.503 2066.29 422.419 Q2064.39 420.336 2061.24 420.336 Q2057.68 420.336 2055.53 422.35 Q2053.4 424.364 2053.07 428.021 L2068.26 427.998 Z" fill="#000000" fill-rule="nonzero" fill-opacity="1" /><path clip-path="url(#clip150)" d="M2099.69 422.327 Q2101.29 419.456 2103.51 418.091 Q2105.73 416.725 2108.74 416.725 Q2112.79 416.725 2114.99 419.572 Q2117.19 422.396 2117.19 427.628 L2117.19 443.276 L2112.91 443.276 L2112.91 427.767 Q2112.91 424.04 2111.59 422.234 Q2110.27 420.429 2107.56 420.429 Q2104.25 420.429 2102.33 422.628 Q2100.41 424.827 2100.41 428.623 L2100.41 443.276 L2096.13 443.276 L2096.13 427.767 Q2096.13 424.017 2094.81 422.234 Q2093.49 420.429 2090.73 420.429 Q2087.47 420.429 2085.55 422.651 Q2083.63 424.85 2083.63 428.623 L2083.63 443.276 L2079.34 443.276 L2079.34 417.35 L2083.63 417.35 L2083.63 421.378 Q2085.09 418.993 2087.12 417.859 Q2089.16 416.725 2091.96 416.725 Q2094.78 416.725 2096.75 418.16 Q2098.74 419.595 2099.69 422.327 Z" fill="#000000" fill-rule="nonzero" fill-opacity="1" /><path clip-path="url(#clip150)" d="M2137.47 430.243 Q2132.31 430.243 2130.32 431.424 Q2128.33 432.604 2128.33 435.452 Q2128.33 437.72 2129.81 439.063 Q2131.31 440.382 2133.88 440.382 Q2137.42 440.382 2139.55 437.882 Q2141.71 435.359 2141.71 431.192 L2141.71 430.243 L2137.47 430.243 M2145.97 428.484 L2145.97 443.276 L2141.71 443.276 L2141.71 439.341 Q2140.25 441.702 2138.07 442.836 Q2135.9 443.947 2132.75 443.947 Q2128.77 443.947 2126.4 441.725 Q2124.07 439.479 2124.07 435.729 Q2124.07 431.354 2126.98 429.132 Q2129.92 426.91 2135.73 426.91 L2141.71 426.91 L2141.71 426.493 Q2141.71 423.554 2139.76 421.956 Q2137.84 420.336 2134.34 420.336 Q2132.12 420.336 2130.02 420.868 Q2127.91 421.401 2125.97 422.466 L2125.97 418.53 Q2128.3 417.628 2130.5 417.188 Q2132.7 416.725 2134.78 416.725 Q2140.41 416.725 2143.19 419.642 Q2145.97 422.558 2145.97 428.484 Z" fill="#000000" fill-rule="nonzero" fill-opacity="1" /><circle clip-path="url(#clip150)" cx="1758.16" cy="477.836" r="21.9429" fill="#ffa500" fill-rule="evenodd" fill-opacity="1" stroke="#000000" stroke-opacity="1" stroke-width="1.95048"/>
<path clip-path="url(#clip150)" d="M1868.35 478.912 Q1869.86 479.421 1871.27 481.088 Q1872.7 482.755 1874.14 485.671 L1878.88 495.116 L1873.86 495.116 L1869.44 486.25 Q1867.73 482.778 1866.11 481.644 Q1864.51 480.509 1861.73 480.509 L1856.64 480.509 L1856.64 495.116 L1851.96 495.116 L1851.96 460.556 L1862.52 460.556 Q1868.44 460.556 1871.36 463.033 Q1874.28 465.509 1874.28 470.509 Q1874.28 473.773 1872.75 475.926 Q1871.24 478.079 1868.35 478.912 M1856.64 464.398 L1856.64 476.667 L1862.52 476.667 Q1865.9 476.667 1867.61 475.116 Q1869.35 473.542 1869.35 470.509 Q1869.35 467.477 1867.61 465.949 Q1865.9 464.398 1862.52 464.398 L1856.64 464.398 Z" fill="#000000" fill-rule="nonzero" fill-opacity="1" /><path clip-path="url(#clip150)" d="M1904.76 481.088 L1904.76 483.171 L1885.18 483.171 Q1885.46 487.569 1887.82 489.884 Q1890.2 492.176 1894.44 492.176 Q1896.89 492.176 1899.18 491.574 Q1901.5 490.972 1903.77 489.769 L1903.77 493.796 Q1901.48 494.768 1899.07 495.278 Q1896.66 495.787 1894.18 495.787 Q1887.98 495.787 1884.35 492.176 Q1880.73 488.565 1880.73 482.407 Q1880.73 476.042 1884.16 472.315 Q1887.61 468.565 1893.44 468.565 Q1898.67 468.565 1901.71 471.945 Q1904.76 475.301 1904.76 481.088 M1900.5 479.838 Q1900.46 476.343 1898.54 474.259 Q1896.64 472.176 1893.49 472.176 Q1889.92 472.176 1887.77 474.19 Q1885.64 476.204 1885.32 479.861 L1900.5 479.838 Z" fill="#000000" fill-rule="nonzero" fill-opacity="1" /><path clip-path="url(#clip150)" d="M1928.81 473.125 L1928.81 459.097 L1933.07 459.097 L1933.07 495.116 L1928.81 495.116 L1928.81 491.227 Q1927.47 493.542 1925.41 494.676 Q1923.37 495.787 1920.5 495.787 Q1915.8 495.787 1912.84 492.037 Q1909.9 488.287 1909.9 482.176 Q1909.9 476.065 1912.84 472.315 Q1915.8 468.565 1920.5 468.565 Q1923.37 468.565 1925.41 469.699 Q1927.47 470.81 1928.81 473.125 M1914.3 482.176 Q1914.3 486.875 1916.22 489.56 Q1918.17 492.222 1921.54 492.222 Q1924.92 492.222 1926.87 489.56 Q1928.81 486.875 1928.81 482.176 Q1928.81 477.477 1926.87 474.815 Q1924.92 472.13 1921.54 472.13 Q1918.17 472.13 1916.22 474.815 Q1914.3 477.477 1914.3 482.176 Z" fill="#000000" fill-rule="nonzero" fill-opacity="1" /><path clip-path="url(#clip150)" d="M1978.47 479.468 L1978.47 495.116 L1974.21 495.116 L1974.21 479.607 Q1974.21 475.926 1972.77 474.097 Q1971.34 472.269 1968.47 472.269 Q1965.02 472.269 1963.03 474.468 Q1961.04 476.667 1961.04 480.463 L1961.04 495.116 L1956.75 495.116 L1956.75 469.19 L1961.04 469.19 L1961.04 473.218 Q1962.56 470.88 1964.62 469.722 Q1966.71 468.565 1969.42 468.565 Q1973.88 468.565 1976.17 471.343 Q1978.47 474.097 1978.47 479.468 Z" fill="#000000" fill-rule="nonzero" fill-opacity="1" /><path clip-path="url(#clip150)" d="M1997.01 472.176 Q1993.58 472.176 1991.59 474.861 Q1989.6 477.523 1989.6 482.176 Q1989.6 486.829 1991.57 489.514 Q1993.56 492.176 1997.01 492.176 Q2000.41 492.176 2002.4 489.491 Q2004.39 486.806 2004.39 482.176 Q2004.39 477.57 2002.4 474.884 Q2000.41 472.176 1997.01 472.176 M1997.01 468.565 Q2002.56 468.565 2005.73 472.176 Q2008.91 475.787 2008.91 482.176 Q2008.91 488.542 2005.73 492.176 Q2002.56 495.787 1997.01 495.787 Q1991.43 495.787 1988.26 492.176 Q1985.11 488.542 1985.11 482.176 Q1985.11 475.787 1988.26 472.176 Q1991.43 468.565 1997.01 468.565 Z" fill="#000000" fill-rule="nonzero" fill-opacity="1" /><path clip-path="url(#clip150)" d="M2048.1 473.125 L2048.1 459.097 L2052.35 459.097 L2052.35 495.116 L2048.1 495.116 L2048.1 491.227 Q2046.75 493.542 2044.69 494.676 Q2042.66 495.787 2039.79 495.787 Q2035.09 495.787 2032.12 492.037 Q2029.18 488.287 2029.18 482.176 Q2029.18 476.065 2032.12 472.315 Q2035.09 468.565 2039.79 468.565 Q2042.66 468.565 2044.69 469.699 Q2046.75 470.81 2048.1 473.125 M2033.58 482.176 Q2033.58 486.875 2035.5 489.56 Q2037.45 492.222 2040.83 492.222 Q2044.21 492.222 2046.15 489.56 Q2048.1 486.875 2048.1 482.176 Q2048.1 477.477 2046.15 474.815 Q2044.21 472.13 2040.83 472.13 Q2037.45 472.13 2035.5 474.815 Q2033.58 477.477 2033.58 482.176 Z" fill="#000000" fill-rule="nonzero" fill-opacity="1" /><path clip-path="url(#clip150)" d="M2071.17 472.176 Q2067.75 472.176 2065.76 474.861 Q2063.77 477.523 2063.77 482.176 Q2063.77 486.829 2065.73 489.514 Q2067.72 492.176 2071.17 492.176 Q2074.58 492.176 2076.57 489.491 Q2078.56 486.806 2078.56 482.176 Q2078.56 477.57 2076.57 474.884 Q2074.58 472.176 2071.17 472.176 M2071.17 468.565 Q2076.73 468.565 2079.9 472.176 Q2083.07 475.787 2083.07 482.176 Q2083.07 488.542 2079.9 492.176 Q2076.73 495.787 2071.17 495.787 Q2065.6 495.787 2062.42 492.176 Q2059.28 488.542 2059.28 482.176 Q2059.28 475.787 2062.42 472.176 Q2065.6 468.565 2071.17 468.565 Z" fill="#000000" fill-rule="nonzero" fill-opacity="1" /><path clip-path="url(#clip150)" d="M2110.32 474.167 Q2111.91 471.296 2114.14 469.931 Q2116.36 468.565 2119.37 468.565 Q2123.42 468.565 2125.62 471.412 Q2127.82 474.236 2127.82 479.468 L2127.82 495.116 L2123.53 495.116 L2123.53 479.607 Q2123.53 475.88 2122.22 474.074 Q2120.9 472.269 2118.19 472.269 Q2114.88 472.269 2112.96 474.468 Q2111.03 476.667 2111.03 480.463 L2111.03 495.116 L2106.75 495.116 L2106.75 479.607 Q2106.75 475.857 2105.43 474.074 Q2104.11 472.269 2101.36 472.269 Q2098.09 472.269 2096.17 474.491 Q2094.25 476.69 2094.25 480.463 L2094.25 495.116 L2089.97 495.116 L2089.97 469.19 L2094.25 469.19 L2094.25 473.218 Q2095.71 470.833 2097.75 469.699 Q2099.78 468.565 2102.59 468.565 Q2105.41 468.565 2107.38 470 Q2109.37 471.435 2110.32 474.167 Z" fill="#000000" fill-rule="nonzero" fill-opacity="1" /><path clip-path="url(#clip150)" d="M2136.31 469.19 L2140.57 469.19 L2140.57 495.116 L2136.31 495.116 L2136.31 469.19 M2136.31 459.097 L2140.57 459.097 L2140.57 464.491 L2136.31 464.491 L2136.31 459.097 Z" fill="#000000" fill-rule="nonzero" fill-opacity="1" /><path clip-path="url(#clip150)" d="M2171.03 479.468 L2171.03 495.116 L2166.78 495.116 L2166.78 479.607 Q2166.78 475.926 2165.34 474.097 Q2163.9 472.269 2161.03 472.269 Q2157.59 472.269 2155.59 474.468 Q2153.6 476.667 2153.6 480.463 L2153.6 495.116 L2149.32 495.116 L2149.32 469.19 L2153.6 469.19 L2153.6 473.218 Q2155.13 470.88 2157.19 469.722 Q2159.28 468.565 2161.98 468.565 Q2166.45 468.565 2168.74 471.343 Q2171.03 474.097 2171.03 479.468 Z" fill="#000000" fill-rule="nonzero" fill-opacity="1" /><path clip-path="url(#clip150)" d="M2191.31 482.083 Q2186.15 482.083 2184.16 483.264 Q2182.17 484.444 2182.17 487.292 Q2182.17 489.56 2183.65 490.903 Q2185.15 492.222 2187.72 492.222 Q2191.27 492.222 2193.4 489.722 Q2195.55 487.199 2195.55 483.032 L2195.55 482.083 L2191.31 482.083 M2199.81 480.324 L2199.81 495.116 L2195.55 495.116 L2195.55 491.181 Q2194.09 493.542 2191.91 494.676 Q2189.74 495.787 2186.59 495.787 Q2182.61 495.787 2180.25 493.565 Q2177.91 491.319 2177.91 487.569 Q2177.91 483.194 2180.83 480.972 Q2183.77 478.75 2189.58 478.75 L2195.55 478.75 L2195.55 478.333 Q2195.55 475.394 2193.6 473.796 Q2191.68 472.176 2188.19 472.176 Q2185.96 472.176 2183.86 472.708 Q2181.75 473.241 2179.81 474.306 L2179.81 470.37 Q2182.15 469.468 2184.34 469.028 Q2186.54 468.565 2188.63 468.565 Q2194.25 468.565 2197.03 471.482 Q2199.81 474.398 2199.81 480.324 Z" fill="#000000" fill-rule="nonzero" fill-opacity="1" /><path clip-path="url(#clip150)" d="M2225.64 473.125 L2225.64 459.097 L2229.9 459.097 L2229.9 495.116 L2225.64 495.116 L2225.64 491.227 Q2224.3 493.542 2222.24 494.676 Q2220.2 495.787 2217.33 495.787 Q2212.63 495.787 2209.67 492.037 Q2206.73 488.287 2206.73 482.176 Q2206.73 476.065 2209.67 472.315 Q2212.63 468.565 2217.33 468.565 Q2220.2 468.565 2222.24 469.699 Q2224.3 470.81 2225.64 473.125 M2211.13 482.176 Q2211.13 486.875 2213.05 489.56 Q2214.99 492.222 2218.37 492.222 Q2221.75 492.222 2223.7 489.56 Q2225.64 486.875 2225.64 482.176 Q2225.64 477.477 2223.7 474.815 Q2221.75 472.13 2218.37 472.13 Q2214.99 472.13 2213.05 474.815 Q2211.13 477.477 2211.13 482.176 Z" fill="#000000" fill-rule="nonzero" fill-opacity="1" /><path clip-path="url(#clip150)" d="M2250.46 482.083 Q2245.29 482.083 2243.3 483.264 Q2241.31 484.444 2241.31 487.292 Q2241.31 489.56 2242.79 490.903 Q2244.3 492.222 2246.87 492.222 Q2250.41 492.222 2252.54 489.722 Q2254.69 487.199 2254.69 483.032 L2254.69 482.083 L2250.46 482.083 M2258.95 480.324 L2258.95 495.116 L2254.69 495.116 L2254.69 491.181 Q2253.23 493.542 2251.06 494.676 Q2248.88 495.787 2245.73 495.787 Q2241.75 495.787 2239.39 493.565 Q2237.05 491.319 2237.05 487.569 Q2237.05 483.194 2239.97 480.972 Q2242.91 478.75 2248.72 478.75 L2254.69 478.75 L2254.69 478.333 Q2254.69 475.394 2252.75 473.796 Q2250.83 472.176 2247.33 472.176 Q2245.11 472.176 2243 472.708 Q2240.9 473.241 2238.95 474.306 L2238.95 470.37 Q2241.29 469.468 2243.49 469.028 Q2245.69 468.565 2247.77 468.565 Q2253.39 468.565 2256.17 471.482 Q2258.95 474.398 2258.95 480.324 Z" fill="#000000" fill-rule="nonzero" fill-opacity="1" /></svg>
